<?xml version="1.0" encoding="UTF-8" ?>
<!DOCTYPE svg PUBLIC "-//W3C//DTD SVG 1.1//EN" "http://www.w3.org/Graphics/SVG/1.1/DTD/svg11.dtd">
<svg width="896pt" height="896pt" viewBox="0 0 896 896" version="1.1" xmlns="http://www.w3.org/2000/svg">
<path fill="#ffffff" d=" M 0.00 0.00 L 896.00 0.00 L 896.00 420.63 C 891.80 417.98 886.69 418.14 882.01 417.03 C 854.88 412.10 827.42 409.03 799.93 407.20 C 790.68 405.89 781.30 407.08 772.06 405.71 C 750.79 405.19 729.50 405.60 708.22 405.48 C 711.37 395.49 713.89 385.29 715.68 374.97 C 716.43 370.93 716.40 366.70 717.96 362.85 C 724.81 373.07 731.70 383.37 736.95 394.52 C 737.67 394.54 738.40 394.57 739.14 394.60 C 747.01 376.99 752.71 358.27 754.52 339.01 C 754.82 329.01 754.89 319.00 754.47 309.01 C 752.52 290.24 746.15 271.92 735.88 256.08 C 734.64 253.95 732.96 251.88 733.08 249.27 C 740.96 252.79 748.22 257.62 754.51 263.52 C 762.00 270.69 769.22 278.26 774.92 286.95 C 775.10 278.55 771.53 270.80 769.02 262.96 C 757.22 231.37 740.71 201.54 720.45 174.60 C 709.40 160.08 697.31 146.29 683.71 134.11 C 682.41 130.27 681.69 126.27 680.93 122.31 C 678.88 113.03 676.01 103.94 672.67 95.06 C 672.07 93.23 670.78 91.80 669.50 90.42 C 660.32 90.43 651.00 89.56 641.96 91.58 C 637.40 92.50 632.96 94.05 628.30 94.39 C 608.80 83.21 587.46 75.40 565.71 69.90 C 553.91 67.21 541.99 64.29 529.82 64.19 C 529.82 63.84 529.81 63.13 529.80 62.78 C 537.88 62.77 545.86 61.15 553.95 61.50 C 568.83 61.10 583.76 62.42 598.26 65.83 C 600.94 66.49 603.70 66.69 606.47 66.78 C 605.82 65.38 604.83 64.29 603.53 63.51 C 584.30 51.49 563.40 42.37 541.99 35.02 C 513.98 25.79 484.64 19.46 455.02 20.33 C 435.34 19.75 415.70 23.03 396.91 28.81 C 364.92 38.89 336.37 58.54 314.35 83.71 C 307.25 90.08 302.28 98.35 296.37 105.76 C 282.32 98.95 267.41 93.78 252.04 90.98 C 243.35 89.79 234.54 90.27 225.80 90.52 C 223.26 94.10 222.15 98.39 220.69 102.46 C 215.62 117.12 212.39 132.44 211.45 147.93 C 211.35 154.61 211.36 161.30 211.47 167.98 C 212.18 180.31 214.76 192.49 218.79 204.15 C 206.63 218.11 196.06 233.59 188.90 250.73 C 182.00 266.98 177.84 284.38 176.49 301.99 C 176.26 309.98 176.28 317.98 176.32 325.98 C 176.07 352.84 179.70 379.83 187.78 405.48 C 166.18 405.60 144.57 405.19 122.98 405.72 C 114.74 406.97 106.38 406.07 98.12 406.96 C 65.24 409.50 32.23 412.70 0.00 419.98 L 0.00 0.00 Z" />
<path fill="#0192cf" d=" M 396.91 28.81 C 415.70 23.03 435.34 19.75 455.02 20.33 C 484.64 19.46 513.98 25.79 541.99 35.02 C 563.40 42.37 584.30 51.49 603.53 63.51 C 604.83 64.29 605.82 65.38 606.47 66.78 C 603.70 66.69 600.94 66.49 598.26 65.83 C 583.76 62.42 568.83 61.10 553.95 61.50 C 545.86 61.15 537.88 62.77 529.80 62.78 C 529.81 63.13 529.82 63.84 529.82 64.19 C 541.99 64.29 553.91 67.21 565.71 69.90 C 587.46 75.40 608.80 83.21 628.30 94.39 C 632.26 96.59 636.29 98.66 640.14 101.06 C 651.65 107.95 662.64 115.77 672.80 124.53 C 676.60 127.53 680.00 131.00 683.71 134.11 C 697.31 146.29 709.40 160.08 720.45 174.60 C 740.71 201.54 757.22 231.37 769.02 262.96 C 771.53 270.80 775.10 278.55 774.92 286.95 C 769.22 278.26 762.00 270.69 754.51 263.52 C 748.22 257.62 740.96 252.79 733.08 249.27 C 732.96 251.88 734.64 253.95 735.88 256.08 C 746.15 271.92 752.52 290.24 754.47 309.01 C 754.89 319.00 754.82 329.01 754.52 339.01 C 752.71 358.27 747.01 376.99 739.14 394.60 C 738.40 394.57 737.67 394.54 736.95 394.52 C 731.70 383.37 724.81 373.07 717.96 362.85 C 715.75 359.36 713.25 356.08 710.78 352.79 C 673.74 302.95 624.61 261.95 568.31 235.59 C 549.38 226.66 529.44 219.88 509.00 215.36 C 498.57 213.24 488.08 210.88 477.37 211.19 C 477.35 217.97 476.92 224.93 479.06 231.48 C 484.48 250.79 499.11 266.13 515.61 276.79 C 517.47 278.34 519.27 279.97 521.09 281.58 C 505.96 278.95 490.79 276.01 476.32 270.77 C 471.06 268.98 466.13 266.34 460.74 264.92 C 446.62 257.95 433.46 248.86 422.50 237.50 C 406.94 221.60 396.33 201.60 388.73 180.87 C 385.76 173.65 383.95 165.47 378.10 159.90 C 373.69 155.21 368.06 152.01 362.49 148.93 C 356.44 145.64 352.75 139.25 346.30 136.59 C 347.82 136.48 349.35 136.38 350.88 136.29 C 360.16 139.73 369.33 143.82 377.33 149.72 C 382.92 154.09 388.10 159.37 390.70 166.10 C 394.65 176.11 398.20 186.31 403.36 195.79 C 417.60 223.67 442.35 244.99 470.11 258.78 C 476.37 261.71 482.47 265.18 489.20 266.90 C 487.21 263.32 484.05 260.64 481.71 257.32 C 475.37 248.44 471.62 237.82 470.51 226.99 C 470.11 219.14 470.32 211.27 470.60 203.42 C 479.77 202.99 488.84 204.81 497.82 206.48 C 524.72 211.48 550.93 219.90 575.90 231.05 C 625.09 253.74 669.00 287.80 702.96 330.02 C 715.55 345.63 727.02 362.18 736.87 379.66 C 737.59 379.54 738.32 379.43 739.06 379.32 C 743.31 365.84 747.84 352.22 748.59 337.98 C 748.78 329.33 748.86 320.66 748.50 312.02 C 746.44 291.62 738.64 271.96 726.77 255.30 C 724.92 252.83 723.35 250.07 720.96 248.07 C 717.40 246.42 713.47 245.75 709.62 245.17 C 710.58 245.06 711.55 244.95 712.52 244.85 C 709.44 244.47 706.42 243.76 703.44 242.97 C 707.74 241.15 712.42 241.39 716.98 241.41 C 729.62 241.03 742.41 244.35 753.18 251.01 C 754.31 251.71 755.69 251.56 756.97 251.74 C 745.43 225.31 731.04 200.07 713.41 177.22 C 691.37 148.22 663.92 123.20 632.48 104.73 C 599.49 85.29 562.10 73.51 523.98 70.17 C 518.36 69.22 512.66 69.47 506.99 69.34 C 493.21 69.20 479.43 69.31 465.65 69.34 C 465.66 68.96 465.68 68.18 465.70 67.80 C 472.29 67.17 478.57 64.87 485.05 63.58 C 502.47 59.27 520.24 56.23 538.15 55.11 C 549.15 53.70 560.28 55.01 571.33 54.19 C 570.22 53.87 569.13 53.55 568.04 53.23 C 555.05 46.51 540.95 42.20 527.05 37.79 C 524.69 37.19 522.35 36.52 520.03 35.82 C 511.09 33.61 502.11 31.49 492.99 30.19 C 476.18 26.92 459.01 27.20 441.96 27.45 C 413.08 29.05 384.53 37.85 360.10 53.40 C 349.22 60.25 339.27 68.45 330.07 77.39 C 320.68 86.62 312.43 96.89 304.55 107.40 C 303.72 107.84 302.89 108.28 302.05 108.69 C 300.71 107.85 299.37 107.02 298.04 106.19 C 301.96 100.14 306.37 94.42 311.05 88.93 C 312.40 87.36 313.39 85.53 314.35 83.71 C 336.37 58.54 364.92 38.89 396.91 28.81 Z" />
<path fill="#f03d31" d=" M 360.10 53.40 C 384.53 37.85 413.08 29.05 441.96 27.45 C 459.01 27.20 476.18 26.92 492.99 30.19 C 502.11 31.49 511.09 33.61 520.03 35.82 C 522.35 36.52 524.69 37.19 527.05 37.79 C 540.95 42.20 555.05 46.51 568.04 53.23 C 569.13 53.55 570.22 53.87 571.33 54.19 C 560.28 55.01 549.15 53.70 538.15 55.11 C 520.24 56.23 502.47 59.27 485.05 63.58 C 478.57 64.87 472.29 67.17 465.70 67.80 C 465.68 68.18 465.66 68.96 465.65 69.34 C 479.43 69.31 493.21 69.20 506.99 69.34 C 512.66 69.47 518.36 69.22 523.98 70.17 C 562.10 73.51 599.49 85.29 632.48 104.73 C 663.92 123.20 691.37 148.22 713.41 177.22 C 713.44 177.90 713.48 179.26 713.50 179.94 C 704.55 175.65 696.06 170.50 687.22 166.01 C 660.86 153.11 634.65 139.91 607.80 128.05 C 577.59 114.48 546.83 102.14 515.57 91.20 C 465.18 73.53 413.23 59.57 360.10 53.40 Z" />
<path fill="#f67634" d=" M 330.07 77.39 C 339.27 68.45 349.22 60.25 360.10 53.40 C 413.23 59.57 465.18 73.53 515.57 91.20 C 546.83 102.14 577.59 114.48 607.80 128.05 C 634.65 139.91 660.86 153.11 687.22 166.01 C 696.06 170.50 704.55 175.65 713.50 179.94 C 713.48 179.26 713.44 177.90 713.41 177.22 C 731.04 200.07 745.43 225.31 756.97 251.74 C 755.69 251.56 754.31 251.71 753.18 251.01 C 742.41 244.35 729.62 241.03 716.98 241.41 C 712.42 241.39 707.74 241.15 703.44 242.97 C 706.42 243.76 709.44 244.47 712.52 244.85 C 711.55 244.95 710.58 245.06 709.62 245.17 C 713.47 245.75 717.40 246.42 720.96 248.07 C 723.35 250.07 724.92 252.83 726.77 255.30 C 738.64 271.96 746.44 291.62 748.50 312.02 C 748.86 320.66 748.78 329.33 748.59 337.98 C 747.84 352.22 743.31 365.84 739.06 379.32 C 738.32 379.43 737.59 379.54 736.87 379.66 C 727.02 362.18 715.55 345.63 702.96 330.02 C 669.00 287.80 625.09 253.74 575.90 231.05 C 571.42 221.99 565.09 214.02 559.03 206.00 C 538.77 180.84 514.19 159.35 487.37 141.44 C 464.07 125.71 439.13 112.45 413.28 101.44 C 391.34 92.24 368.69 84.50 345.31 79.95 C 340.26 78.92 335.09 78.57 330.07 77.39 Z" />
<path fill="#f5eb7d" d=" M 304.55 107.40 C 312.43 96.89 320.68 86.62 330.07 77.39 C 335.09 78.57 340.26 78.92 345.31 79.95 C 368.69 84.50 391.34 92.24 413.28 101.44 C 439.13 112.45 464.07 125.71 487.37 141.44 C 514.19 159.35 538.77 180.84 559.03 206.00 C 565.09 214.02 571.42 221.99 575.90 231.05 C 550.93 219.90 524.72 211.48 497.82 206.48 C 488.84 204.81 479.77 202.99 470.60 203.42 C 470.32 211.27 470.11 219.14 470.51 226.99 C 471.62 237.82 475.37 248.44 481.71 257.32 C 484.05 260.64 487.21 263.32 489.20 266.90 C 482.47 265.18 476.37 261.71 470.11 258.78 C 442.35 244.99 417.60 223.67 403.36 195.79 C 398.20 186.31 394.65 176.11 390.70 166.10 C 388.10 159.37 382.92 154.09 377.33 149.72 C 369.33 143.82 360.16 139.73 350.88 136.29 C 348.01 135.02 344.86 134.41 342.18 132.75 C 330.15 124.41 317.84 116.36 304.66 109.93 C 304.64 109.30 304.58 108.03 304.55 107.40 Z" />
<path fill="#6aaadd" d=" M 296.37 105.76 C 302.28 98.35 307.25 90.08 314.35 83.71 C 313.39 85.53 312.40 87.36 311.05 88.93 C 306.37 94.42 301.96 100.14 298.04 106.19 C 299.37 107.02 300.71 107.85 302.05 108.69 C 302.89 108.28 303.72 107.84 304.55 107.40 C 304.58 108.03 304.64 109.30 304.66 109.93 C 317.84 116.36 330.15 124.41 342.18 132.75 C 344.86 134.41 348.01 135.02 350.88 136.29 C 349.35 136.38 347.82 136.48 346.30 136.59 C 352.75 139.25 356.44 145.64 362.49 148.93 C 362.63 151.97 364.99 154.08 366.66 156.39 C 369.38 159.89 371.23 163.96 372.72 168.12 C 367.86 164.41 363.98 159.66 359.55 155.50 C 352.63 148.53 344.63 142.76 336.22 137.73 C 324.12 129.38 311.50 121.74 298.13 115.59 C 279.47 105.82 259.27 97.89 238.05 96.59 C 234.96 96.60 230.24 95.92 229.11 99.75 C 224.53 111.75 221.30 124.27 219.55 137.00 C 218.03 145.58 218.50 154.32 218.44 162.99 C 218.33 177.75 221.74 192.38 227.16 206.05 C 231.08 215.15 239.69 221.17 244.03 229.99 C 239.61 228.00 236.20 224.48 232.49 221.46 C 228.84 218.44 226.12 214.44 222.26 211.65 C 201.52 233.87 188.64 263.01 184.52 293.03 C 183.65 297.98 183.39 303.00 183.44 308.02 C 183.49 312.68 182.50 317.31 182.98 321.97 C 183.71 328.63 183.30 335.34 183.57 342.03 C 185.32 367.48 189.52 393.11 199.44 416.75 C 205.05 430.72 213.08 443.71 223.03 455.00 C 228.26 460.40 233.50 465.83 239.10 470.86 C 251.57 480.77 264.94 489.65 279.47 496.26 C 300.50 506.10 322.97 512.60 345.73 516.99 C 360.69 519.76 375.81 522.22 391.05 522.66 C 404.64 524.02 418.33 523.27 431.97 523.56 C 448.99 523.61 466.02 523.59 483.04 523.46 C 508.48 523.60 533.89 520.71 558.74 515.26 C 590.55 508.28 622.03 496.96 648.36 477.38 C 657.52 471.36 664.90 463.18 672.56 455.45 C 682.68 444.08 690.88 430.97 696.53 416.82 C 704.22 398.75 708.27 379.36 710.83 359.96 C 711.19 357.58 711.15 355.16 710.78 352.79 C 713.25 356.08 715.75 359.36 717.96 362.85 C 716.40 366.70 716.43 370.93 715.68 374.97 C 713.89 385.29 711.37 395.49 708.22 405.48 C 729.50 405.60 750.79 405.19 772.06 405.71 C 781.30 407.08 790.68 405.89 799.93 407.20 C 827.42 409.03 854.88 412.10 882.01 417.03 C 886.69 418.14 891.80 417.98 896.00 420.63 L 896.00 426.94 C 894.29 428.28 892.37 430.16 890.01 429.24 C 862.58 423.76 834.77 420.22 806.89 418.20 C 799.30 417.03 791.59 417.90 784.00 416.69 C 757.52 416.04 731.01 416.30 704.52 416.41 C 702.80 419.45 701.17 422.68 701.35 426.29 C 726.32 426.26 751.16 428.83 775.96 431.53 C 778.68 431.68 781.42 431.49 784.16 431.38 C 781.62 431.69 779.09 432.00 776.57 432.32 C 784.02 432.14 791.37 433.53 798.74 434.50 C 830.48 439.02 861.99 445.32 892.89 453.91 C 893.35 454.41 894.26 455.39 894.71 455.88 C 894.48 458.65 893.52 461.26 892.23 463.70 C 887.98 463.75 883.96 462.43 879.94 461.26 C 836.02 449.82 791.01 442.95 745.83 439.01 C 737.54 438.43 729.30 437.33 720.98 437.39 C 712.32 436.23 703.57 436.47 694.86 436.40 C 685.44 453.04 672.47 467.50 657.56 479.40 C 653.89 482.55 649.57 484.87 646.00 488.12 C 645.04 491.10 646.16 494.64 644.18 497.32 C 641.78 501.53 636.95 503.12 632.79 504.98 C 636.93 507.25 641.81 509.27 643.96 513.80 C 646.22 519.52 643.47 526.22 638.08 529.03 C 627.15 535.29 614.12 535.91 601.84 536.76 C 606.16 540.30 612.12 543.01 613.53 548.94 C 613.76 553.29 615.01 558.94 611.04 562.02 C 606.70 565.94 600.48 565.71 595.02 565.57 C 579.71 564.89 565.28 558.96 550.12 557.34 C 550.50 559.31 550.91 561.30 551.56 563.22 C 555.49 574.38 557.92 586.18 557.68 598.05 C 557.75 631.35 557.70 664.65 557.71 697.96 C 557.57 704.74 557.61 711.74 560.10 718.15 C 564.05 728.26 571.45 737.59 581.90 741.41 C 587.17 743.40 593.34 747.62 592.72 753.99 C 593.33 758.62 589.38 762.51 585.12 763.42 C 568.98 764.58 552.15 763.62 537.35 756.47 C 527.34 751.89 518.61 744.25 513.84 734.23 C 510.02 726.76 508.82 718.31 508.51 710.03 C 508.63 681.35 508.51 652.68 508.58 624.01 C 508.74 615.83 507.63 607.55 504.77 599.86 C 504.60 598.66 503.44 598.32 502.51 597.92 C 502.50 638.95 502.51 679.98 502.51 721.01 C 502.73 733.63 507.06 746.15 514.72 756.19 C 517.75 760.23 522.02 763.36 524.25 767.99 C 525.00 770.70 524.62 773.57 524.67 776.36 C 522.47 778.43 520.25 780.90 517.12 781.42 C 513.12 781.98 509.07 781.83 505.05 781.77 C 497.24 781.76 490.03 778.16 483.25 774.64 C 464.35 764.32 451.36 743.65 451.25 722.01 C 450.20 713.73 450.64 705.37 450.56 697.04 C 450.46 660.68 450.34 624.31 450.28 587.95 C 450.63 585.92 448.94 584.65 447.79 583.30 C 444.69 585.17 445.61 588.91 445.53 591.96 C 445.55 618.31 445.40 644.65 445.36 671.00 C 444.01 685.97 444.85 701.03 444.57 716.04 C 445.25 733.42 439.16 751.39 426.55 763.63 C 418.54 772.00 408.05 777.77 396.98 780.99 C 391.07 782.20 384.92 781.97 378.93 781.48 C 375.13 781.12 372.69 777.93 370.36 775.28 C 370.55 772.65 370.07 769.78 371.51 767.42 C 373.26 764.36 375.94 761.99 378.20 759.32 C 384.76 751.87 389.35 742.73 391.55 733.07 C 392.97 727.15 392.62 721.04 392.67 715.02 C 392.63 685.28 392.73 655.54 392.62 625.81 L 389.93 626.65 C 391.90 621.99 395.46 618.10 396.49 613.03 C 399.54 604.67 398.57 595.69 398.76 586.99 C 398.46 585.26 400.36 584.69 401.34 583.71 C 401.14 584.24 400.95 584.79 400.78 585.34 C 400.06 599.88 400.50 614.46 400.37 629.01 C 400.36 659.02 400.40 689.02 400.36 719.03 C 399.98 735.52 394.25 751.95 383.40 764.46 C 381.06 767.16 377.36 769.32 377.35 773.31 C 383.57 776.79 391.09 775.68 397.50 773.31 C 411.35 768.41 424.40 759.12 430.84 745.58 C 435.23 737.10 437.17 727.52 437.50 718.03 C 437.55 675.35 437.58 632.67 437.64 589.99 C 437.68 584.44 437.37 578.88 438.00 573.36 C 443.62 577.89 451.49 577.58 457.58 574.16 C 458.63 577.67 458.12 581.32 458.07 584.92 C 458.65 597.27 458.20 609.63 458.38 621.99 C 458.63 629.37 457.06 636.70 457.79 644.08 C 458.84 654.35 458.34 664.68 457.65 674.95 C 457.07 683.67 459.06 692.35 458.06 701.04 C 457.40 707.04 458.68 713.02 458.36 719.03 C 457.76 733.22 463.13 747.76 473.42 757.65 C 481.74 766.42 492.68 772.68 504.53 775.13 C 508.85 775.96 513.27 775.39 517.46 774.16 C 517.95 771.41 517.07 768.82 514.93 767.03 C 503.23 755.90 496.13 740.06 495.48 723.96 C 495.42 679.31 495.47 634.66 495.45 590.02 C 495.01 582.79 500.66 576.47 507.58 575.09 C 506.30 579.91 505.50 585.22 507.97 589.82 C 512.85 599.80 515.68 610.84 515.58 621.97 C 515.68 644.96 515.60 667.96 515.63 690.95 C 515.72 701.63 515.02 712.44 517.30 722.95 C 519.91 732.98 526.24 742.17 535.19 747.53 C 543.83 752.89 553.87 755.70 563.95 756.56 C 569.80 757.10 575.72 757.92 581.59 757.14 C 583.15 756.65 585.61 756.04 585.61 754.03 C 585.85 751.53 583.31 749.98 581.42 748.93 C 576.24 746.51 570.71 744.48 566.50 740.46 C 557.84 732.31 551.44 721.11 550.96 709.03 C 549.73 701.02 552.17 693.01 550.99 685.01 C 550.13 679.69 551.77 674.37 551.05 669.05 C 550.25 663.69 551.77 658.32 550.93 652.97 C 549.98 646.64 551.40 640.33 551.32 634.01 C 549.83 618.46 551.35 602.80 550.27 587.24 C 548.94 577.04 546.20 567.03 542.05 557.62 C 534.19 556.99 527.09 560.85 520.06 563.73 C 523.08 555.92 531.69 552.75 539.19 550.95 C 553.79 548.10 567.73 554.39 581.88 556.81 C 588.73 558.34 595.80 559.04 602.81 558.35 C 604.71 558.17 606.10 556.69 607.63 555.69 C 608.19 548.57 601.53 543.98 595.84 541.30 C 587.60 537.22 577.68 537.78 569.84 532.88 C 577.88 532.05 585.94 531.26 594.03 531.43 C 604.58 530.69 615.21 529.85 625.46 527.14 C 630.20 525.89 635.21 523.61 637.55 519.03 C 637.82 515.82 634.38 513.93 631.82 512.87 C 624.11 510.12 615.83 509.22 607.68 509.23 C 602.39 509.15 597.70 511.93 592.76 513.41 C 562.50 523.36 530.80 528.76 499.02 530.39 C 480.35 530.56 461.67 530.64 442.99 530.62 C 441.02 530.36 439.49 531.59 438.11 532.79 C 433.31 529.68 427.51 530.71 422.13 530.59 C 412.41 530.29 402.65 530.96 392.98 529.71 C 388.37 529.27 383.72 529.72 379.11 529.33 C 368.42 527.56 357.59 526.62 346.98 524.35 C 343.89 523.66 340.73 523.34 337.58 523.15 C 335.96 529.58 337.59 536.09 337.37 542.59 C 334.48 536.00 335.96 528.76 335.76 521.83 C 317.63 518.11 299.86 512.55 282.83 505.28 C 278.04 503.29 273.43 499.98 267.99 500.45 C 263.86 500.45 258.75 501.58 256.96 505.79 C 255.60 509.01 257.63 512.64 260.58 514.11 C 264.12 515.78 268.06 516.27 271.88 516.88 C 284.33 518.50 296.89 520.23 308.88 524.03 C 304.59 526.41 299.62 525.22 294.97 525.72 C 284.56 526.83 273.80 526.46 263.83 530.10 C 261.16 531.15 257.97 532.86 257.57 536.00 C 258.47 540.06 262.68 542.16 266.24 543.51 C 278.34 547.80 291.31 548.15 303.96 549.28 C 311.20 549.80 318.65 548.65 325.69 550.89 C 322.30 553.27 318.09 553.60 314.21 554.65 C 305.74 556.62 296.45 558.67 290.48 565.53 C 288.19 567.73 287.89 571.22 288.82 574.13 C 292.21 576.98 296.95 576.56 301.08 576.35 C 312.28 575.28 323.22 572.48 334.08 569.63 C 337.72 568.66 341.49 568.35 345.24 568.17 C 345.62 567.20 345.99 566.23 346.37 565.26 C 348.49 568.77 350.65 572.26 353.13 575.52 C 351.32 575.51 349.50 575.50 347.69 575.51 C 345.51 583.83 345.06 592.44 344.39 600.98 C 347.25 599.69 349.92 598.05 352.68 596.59 C 353.14 597.24 354.05 598.54 354.51 599.19 C 352.09 599.74 349.72 600.45 347.43 601.39 C 347.47 603.33 347.50 605.28 347.53 607.23 C 348.30 607.97 349.08 608.72 349.86 609.48 C 351.67 609.44 353.47 609.42 355.28 609.29 C 355.69 609.23 356.50 609.11 356.91 609.05 C 358.48 610.27 360.21 611.26 362.12 611.86 L 361.62 612.08 C 361.17 612.26 360.26 612.62 359.80 612.79 C 359.65 613.92 359.49 615.06 359.34 616.20 C 358.34 616.62 357.34 617.05 356.34 617.48 C 356.55 622.05 356.33 626.62 355.76 631.17 C 355.15 631.65 354.54 632.15 353.95 632.66 C 354.71 627.12 355.19 621.55 355.41 615.98 C 356.56 615.40 357.71 614.83 358.87 614.26 C 358.48 613.54 357.69 612.09 357.30 611.37 C 354.96 611.45 352.57 611.77 350.26 611.31 C 348.19 610.28 346.47 608.69 344.62 607.33 C 344.35 641.91 344.63 676.49 344.48 711.07 C 343.59 723.62 335.60 734.38 326.47 742.49 C 322.55 746.14 317.10 747.15 312.57 749.77 C 310.78 750.83 308.69 752.77 309.81 755.05 C 313.10 758.06 317.91 757.38 322.00 757.39 C 337.46 756.55 354.31 754.13 366.04 743.05 C 374.88 735.38 379.79 723.62 379.57 711.97 C 379.56 693.99 379.57 676.02 379.56 658.05 C 379.50 651.40 379.82 644.74 379.21 638.12 C 381.85 636.10 384.30 633.85 386.62 631.47 C 386.59 658.64 386.60 685.81 386.61 712.98 C 386.79 726.42 380.79 739.86 370.50 748.56 C 360.12 757.49 346.48 761.77 333.08 763.40 C 326.03 763.77 318.96 763.91 311.91 763.60 C 308.12 763.54 304.92 760.79 303.16 757.62 C 301.59 754.18 302.44 749.95 304.92 747.16 C 308.30 742.53 314.32 741.69 318.95 738.85 C 326.47 734.20 331.83 726.71 335.27 718.68 C 337.34 714.06 336.66 708.88 336.80 703.97 C 336.65 699.34 337.67 694.28 334.94 690.19 C 335.58 690.27 336.88 690.43 337.53 690.52 C 337.52 687.49 337.39 684.46 337.16 681.45 C 337.18 681.01 337.24 680.14 337.26 679.70 C 337.72 660.15 337.32 640.58 337.46 621.02 C 337.67 608.31 336.69 595.52 338.88 582.93 C 339.35 580.69 339.61 578.41 339.83 576.15 C 330.54 576.97 321.73 580.37 312.50 581.63 C 306.65 581.27 300.89 582.99 295.03 582.52 C 291.10 582.38 287.50 580.69 283.81 579.54 C 280.33 574.46 280.26 567.09 284.20 562.23 C 286.39 559.14 290.14 557.68 292.32 554.57 C 288.60 554.30 284.87 554.34 281.15 554.07 C 279.55 553.18 277.80 552.64 275.99 552.50 C 271.17 551.96 266.49 550.61 261.92 549.04 C 259.89 548.14 257.89 547.16 255.98 546.04 C 253.04 543.48 251.21 539.95 250.25 536.23 C 250.88 532.85 252.11 529.28 255.00 527.18 C 257.16 525.49 260.12 524.63 261.33 521.96 C 259.92 521.41 258.52 520.88 257.13 520.30 C 255.36 519.12 253.74 517.75 252.11 516.40 C 250.78 516.55 249.44 516.70 248.12 516.86 C 248.95 516.12 249.77 515.37 250.59 514.62 C 250.37 510.71 249.91 506.75 250.65 502.88 C 251.98 498.48 256.32 496.23 259.98 494.02 C 235.99 480.14 214.86 460.66 201.15 436.40 C 194.10 436.52 187.02 436.23 179.99 436.89 C 173.44 437.91 166.76 437.09 160.22 438.23 C 150.13 438.89 140.08 439.96 130.02 440.94 C 123.07 441.63 116.15 442.94 109.13 442.70 C 109.79 442.87 111.11 443.20 111.77 443.37 C 96.66 444.63 81.76 447.60 66.81 450.04 C 49.19 453.32 31.65 457.10 14.33 461.74 C 10.90 462.85 7.38 463.69 3.76 463.69 C 2.41 461.16 1.52 458.43 1.15 455.59 C 2.66 454.58 4.22 453.55 6.02 453.14 C 48.90 441.34 92.93 434.15 137.15 429.67 C 143.71 429.29 150.22 428.18 156.81 428.33 C 155.14 428.02 153.47 427.73 151.80 427.44 C 158.85 427.77 165.95 427.72 172.96 426.78 C 180.18 426.24 187.43 426.47 194.67 426.28 C 194.65 422.85 193.28 419.69 191.96 416.59 C 169.98 416.07 147.98 416.26 125.99 416.42 C 120.01 416.61 113.99 416.24 108.04 417.01 C 101.75 417.90 95.36 417.10 89.10 418.19 C 63.37 420.08 37.71 423.23 12.34 428.01 C 8.86 428.71 5.29 428.78 1.75 428.75 C 1.31 427.92 0.44 426.27 0.00 425.44 L 0.00 419.98 C 32.23 412.70 65.24 409.50 98.12 406.96 C 106.38 406.07 114.74 406.97 122.98 405.72 C 144.57 405.19 166.18 405.60 187.78 405.48 C 179.70 379.83 176.07 352.84 176.32 325.98 C 176.28 317.98 176.26 309.98 176.49 301.99 C 177.84 284.38 182.00 266.98 188.90 250.73 C 196.06 233.59 206.63 218.11 218.79 204.15 C 214.76 192.49 212.18 180.31 211.47 167.98 C 211.36 161.30 211.35 154.61 211.45 147.93 C 212.39 132.44 215.62 117.12 220.69 102.46 C 222.15 98.39 223.26 94.10 225.80 90.52 C 234.54 90.27 243.35 89.79 252.04 90.98 C 267.41 93.78 282.32 98.95 296.37 105.76 Z" />
<path fill="#6aaadd" d=" M 628.30 94.39 C 632.96 94.05 637.40 92.50 641.96 91.58 C 651.00 89.56 660.32 90.43 669.50 90.42 C 670.78 91.80 672.07 93.23 672.67 95.06 C 676.01 103.94 678.88 113.03 680.93 122.31 C 681.69 126.27 682.41 130.27 683.71 134.11 C 680.00 131.00 676.60 127.53 672.80 124.53 C 674.23 120.75 672.42 116.91 671.41 113.27 C 669.97 108.77 668.80 104.15 666.91 99.81 C 666.24 98.54 665.55 96.72 663.84 96.75 C 656.12 96.03 648.42 97.52 640.83 98.82 C 640.66 99.38 640.32 100.50 640.14 101.06 C 636.29 98.66 632.26 96.59 628.30 94.39 Z" />
<path fill="#9dd9f8" d=" M 229.11 99.75 C 230.24 95.92 234.96 96.60 238.05 96.59 C 259.27 97.89 279.47 105.82 298.13 115.59 C 311.50 121.74 324.12 129.38 336.22 137.73 C 344.63 142.76 352.63 148.53 359.55 155.50 C 363.98 159.66 367.86 164.41 372.72 168.12 C 371.23 163.96 369.38 159.89 366.66 156.39 C 364.99 154.08 362.63 151.97 362.49 148.93 C 368.06 152.01 373.69 155.21 378.10 159.90 C 383.95 165.47 385.76 173.65 388.73 180.87 C 396.33 201.60 406.94 221.60 422.50 237.50 C 433.46 248.86 446.62 257.95 460.74 264.92 C 464.99 268.34 470.25 269.95 475.25 271.87 C 485.74 275.74 496.62 278.46 507.60 280.54 C 513.69 281.65 519.70 283.29 525.90 283.77 C 525.76 283.25 525.47 282.20 525.33 281.67 C 522.28 279.68 519.02 278.06 515.61 276.79 C 499.11 266.13 484.48 250.79 479.06 231.48 C 476.92 224.93 477.35 217.97 477.37 211.19 C 488.08 210.88 498.57 213.24 509.00 215.36 C 529.44 219.88 549.38 226.66 568.31 235.59 C 624.61 261.95 673.74 302.95 710.78 352.79 C 711.15 355.16 711.19 357.58 710.83 359.96 C 708.27 379.36 704.22 398.75 696.53 416.82 C 690.88 430.97 682.68 444.08 672.56 455.45 C 664.90 463.18 657.52 471.36 648.36 477.38 C 622.03 496.96 590.55 508.28 558.74 515.26 C 533.89 520.71 508.48 523.60 483.04 523.46 C 466.02 523.59 448.99 523.61 431.97 523.56 C 418.33 523.27 404.64 524.02 391.05 522.66 C 375.81 522.22 360.69 519.76 345.73 516.99 C 322.97 512.60 300.50 506.10 279.47 496.26 C 264.94 489.65 251.57 480.77 239.10 470.86 C 233.50 465.83 228.26 460.40 223.03 455.00 C 213.08 443.71 205.05 430.72 199.44 416.75 C 189.52 393.11 185.32 367.48 183.57 342.03 C 183.30 335.34 183.71 328.63 182.98 321.97 C 182.50 317.31 183.49 312.68 183.44 308.02 C 183.39 303.00 183.65 297.98 184.52 293.03 C 188.64 263.01 201.52 233.87 222.26 211.65 C 226.12 214.44 228.84 218.44 232.49 221.46 C 236.20 224.48 239.61 228.00 244.03 229.99 C 239.69 221.17 231.08 215.15 227.16 206.05 C 221.74 192.38 218.33 177.75 218.44 162.99 C 218.50 154.32 218.03 145.58 219.55 137.00 C 221.30 124.27 224.53 111.75 229.11 99.75 Z" />
<path fill="#9dd9f8" d=" M 640.83 98.82 C 648.42 97.52 656.12 96.03 663.84 96.75 C 665.55 96.72 666.24 98.54 666.91 99.81 C 668.80 104.15 669.97 108.77 671.41 113.27 C 672.42 116.91 674.23 120.75 672.80 124.53 C 662.64 115.77 651.65 107.95 640.14 101.06 C 640.32 100.50 640.66 99.38 640.83 98.82 Z" />
<path fill="#6babdd" d=" M 261.52 113.46 C 266.92 114.39 271.75 117.14 276.69 119.36 C 298.81 129.85 318.91 144.53 335.66 162.38 C 340.15 167.50 345.60 172.05 348.61 178.27 C 343.76 176.21 340.37 171.98 336.42 168.65 C 315.91 150.78 294.53 133.69 270.97 119.98 C 267.77 117.91 263.57 116.94 261.52 113.46 Z" />
<path fill="#5ebce7" d=" M 460.74 264.92 C 466.13 266.34 471.06 268.98 476.32 270.77 C 490.79 276.01 505.96 278.95 521.09 281.58 C 519.27 279.97 517.47 278.34 515.61 276.79 C 519.02 278.06 522.28 279.68 525.33 281.67 C 525.47 282.20 525.76 283.25 525.90 283.77 C 519.70 283.29 513.69 281.65 507.60 280.54 C 496.62 278.46 485.74 275.74 475.25 271.87 C 470.25 269.95 464.99 268.34 460.74 264.92 Z" />
<path fill="#b8e6ff" d=" M 335.25 296.15 C 344.80 295.14 354.43 295.60 364.01 295.76 C 371.70 296.82 379.50 296.23 387.18 297.34 C 395.49 297.56 403.72 298.73 412.03 298.79 C 421.53 300.24 431.17 299.03 440.69 300.21 C 445.77 300.74 450.91 300.65 455.99 300.07 C 463.49 299.19 471.07 300.02 478.59 299.28 C 485.72 298.32 492.94 298.78 500.07 297.71 C 507.77 297.74 515.37 296.28 523.08 296.52 C 539.67 295.02 556.51 294.94 572.99 297.69 C 584.01 299.25 594.67 303.06 604.35 308.55 C 613.34 314.36 620.82 322.15 627.42 330.51 C 637.96 345.66 646.54 363.21 646.53 382.05 C 647.14 403.36 643.35 425.18 633.18 444.09 C 628.51 452.75 621.92 460.12 615.34 467.35 C 609.99 472.56 603.83 476.99 597.11 480.28 C 578.33 490.97 557.18 496.70 536.02 500.42 C 520.45 503.14 504.67 504.30 488.93 505.45 C 480.28 504.99 471.72 506.81 463.07 506.39 C 447.06 506.13 430.98 507.15 415.03 505.49 C 400.62 505.57 386.27 504.00 371.99 502.23 C 355.81 500.27 339.83 496.77 324.30 491.86 C 311.45 487.30 298.82 481.61 287.97 473.23 C 285.08 471.04 281.79 469.37 279.21 466.78 C 273.67 461.18 268.14 455.35 264.68 448.19 C 255.84 433.65 251.03 416.89 249.61 400.00 C 249.27 394.33 248.23 388.70 248.60 383.01 C 249.40 371.38 251.52 359.57 257.10 349.20 C 259.49 344.11 262.43 339.32 265.57 334.66 C 270.11 326.80 276.77 320.50 283.35 314.36 C 289.00 309.12 296.14 306.02 303.10 302.93 C 313.36 298.95 324.28 296.82 335.25 296.15 Z" />
<path fill="#000000" d=" M 386.23 331.48 C 386.84 331.42 388.05 331.29 388.65 331.23 C 388.52 333.74 388.61 336.29 388.14 338.78 C 387.23 339.52 386.32 340.24 386.18 341.52 C 385.76 341.47 384.91 341.36 384.49 341.31 L 384.63 342.57 C 383.80 342.55 382.13 342.52 381.29 342.50 L 381.69 343.51 C 380.81 343.46 379.04 343.35 378.16 343.30 C 378.26 344.41 378.36 345.53 378.46 346.66 L 379.67 346.58 C 379.56 347.05 379.34 348.00 379.23 348.47 L 380.70 348.64 C 380.56 349.11 380.28 350.04 380.14 350.50 L 381.41 350.45 C 381.45 351.23 381.54 352.79 381.58 353.57 L 382.91 353.52 C 382.71 354.01 382.32 354.99 382.13 355.48 L 383.45 355.36 C 383.48 356.18 383.53 357.82 383.56 358.64 L 384.89 358.54 C 384.67 359.03 384.24 360.00 384.02 360.49 L 385.37 360.42 C 385.40 361.85 385.45 363.28 385.49 364.72 L 386.49 364.35 C 386.46 365.18 386.39 366.84 386.36 367.67 C 386.60 367.64 387.09 367.59 387.33 367.57 C 387.41 369.93 387.53 372.30 387.58 374.68 L 388.45 374.31 C 388.87 384.76 389.01 395.21 388.42 405.66 L 387.48 405.31 C 387.48 406.76 387.48 408.22 387.49 409.69 L 386.63 409.31 C 386.48 411.45 386.05 413.60 385.15 415.57 L 384.62 416.22 C 382.02 418.88 381.05 422.66 378.55 425.41 C 373.50 431.54 366.29 436.92 357.99 436.64 C 354.32 436.84 350.58 436.22 347.47 434.17 C 342.25 431.40 338.04 427.19 334.51 422.52 C 331.97 415.98 327.63 410.08 326.72 402.99 C 326.13 398.57 325.01 394.08 325.71 389.62 C 325.96 389.32 326.45 388.72 326.70 388.43 L 328.48 388.36 C 328.45 388.80 328.39 389.70 328.36 390.15 C 329.87 391.70 331.43 393.22 333.00 394.73 C 333.34 394.58 334.03 394.30 334.37 394.15 L 334.42 395.49 C 339.13 395.87 343.86 395.82 348.57 395.49 L 348.55 394.84 C 350.79 394.15 352.94 393.18 354.99 392.05 C 359.42 389.00 362.92 384.99 366.33 380.90 C 366.34 380.54 366.36 379.84 366.37 379.49 L 367.67 379.37 C 367.58 378.92 367.40 378.02 367.31 377.57 L 368.70 377.45 C 368.61 376.97 368.42 376.03 368.33 375.55 L 369.77 375.41 C 369.63 374.94 369.34 374.00 369.19 373.53 L 370.49 373.53 C 370.48 372.75 370.46 371.21 370.45 370.44 L 371.43 370.52 C 371.75 365.18 371.83 359.82 371.42 354.47 L 370.14 354.43 C 370.30 353.99 370.63 353.10 370.79 352.65 L 369.40 352.49 C 369.39 352.13 369.37 351.40 369.37 351.03 C 368.44 350.36 367.68 349.53 367.10 348.56 C 366.70 348.51 365.91 348.41 365.52 348.36 C 365.53 347.91 365.55 347.01 365.56 346.56 C 364.98 346.55 363.84 346.51 363.26 346.49 L 363.97 344.70 C 360.59 344.11 357.18 343.65 353.75 343.61 C 346.17 343.12 338.58 343.52 331.00 343.37 C 326.64 343.01 322.35 341.98 317.95 342.24 C 315.92 342.50 313.25 341.68 311.86 343.62 C 311.64 343.92 311.20 344.52 310.98 344.82 C 310.11 345.98 309.17 347.10 308.16 348.15 C 308.02 348.28 307.75 348.54 307.62 348.67 C 300.43 355.47 297.03 365.26 293.39 374.24 C 293.51 372.10 293.49 369.97 293.32 367.85 C 292.01 366.71 290.45 365.73 288.68 365.55 L 287.41 365.35 L 287.46 364.35 C 287.07 364.37 286.27 364.41 285.88 364.43 C 285.19 362.45 282.89 361.71 283.06 359.27 C 284.26 359.33 285.45 359.38 286.65 359.45 L 286.43 360.48 C 287.22 360.50 288.79 360.53 289.58 360.55 L 289.34 361.60 C 291.34 361.59 293.36 361.59 295.37 361.53 C 295.44 360.49 295.58 358.40 295.65 357.36 L 294.41 357.59 L 294.65 356.59 C 293.62 356.19 292.59 355.79 291.57 355.39 L 291.50 354.41 L 290.34 354.56 L 290.48 353.41 C 290.01 353.40 289.06 353.39 288.59 353.38 C 288.59 352.92 288.59 352.01 288.60 351.55 L 287.37 351.54 C 287.38 350.51 287.39 349.49 287.40 348.47 L 289.51 348.60 L 289.52 349.84 C 289.99 349.71 290.93 349.45 291.40 349.32 L 291.48 350.80 C 291.98 350.66 292.98 350.38 293.49 350.24 L 293.37 351.53 C 295.36 351.53 297.36 351.53 299.35 351.48 C 299.40 350.72 299.49 349.20 299.54 348.44 L 300.85 348.43 C 300.70 347.96 300.38 347.04 300.23 346.58 L 301.59 346.64 C 301.60 345.56 301.62 343.42 301.63 342.34 C 301.10 342.42 300.04 342.58 299.51 342.66 L 299.68 341.53 L 298.51 341.51 L 298.46 340.36 L 297.29 340.48 C 297.36 340.00 297.51 339.04 297.58 338.56 L 296.15 338.47 C 296.30 337.98 296.61 337.00 296.76 336.51 L 295.45 336.66 C 295.52 334.76 295.67 330.96 295.74 329.06 C 296.24 330.44 297.23 333.19 297.72 334.57 C 298.15 334.57 299.00 334.57 299.42 334.57 C 299.44 335.04 299.50 335.96 299.52 336.42 C 314.00 336.83 328.50 336.50 342.98 336.60 C 356.48 336.50 369.99 336.83 383.49 336.41 L 383.37 335.19 L 384.67 335.54 C 384.64 335.08 384.59 334.16 384.57 333.70 C 385.06 333.62 386.06 333.45 386.55 333.36 C 386.47 332.89 386.31 331.95 386.23 331.48 Z" />
<path fill="#000000" d=" M 506.57 331.33 C 507.54 331.38 508.52 331.43 509.51 331.48 C 509.46 331.99 509.37 333.02 509.32 333.53 L 510.56 333.52 C 510.57 334.02 510.57 335.02 510.58 335.52 C 511.06 335.46 512.04 335.36 512.52 335.30 L 512.42 336.49 C 540.13 336.68 567.85 336.69 595.56 336.49 L 595.51 335.24 C 595.92 335.31 596.74 335.43 597.15 335.49 C 597.28 335.03 597.54 334.09 597.68 333.62 L 599.77 332.91 C 599.71 334.10 599.59 336.47 599.53 337.66 L 598.71 337.46 C 599.19 339.91 596.75 340.40 596.20 342.36 C 595.54 342.41 594.21 342.53 593.55 342.58 C 593.50 343.32 593.39 344.80 593.34 345.54 L 594.65 345.60 C 594.55 346.07 594.36 347.00 594.26 347.47 L 595.72 347.59 C 595.60 348.06 595.35 348.99 595.23 349.46 L 596.60 349.50 C 596.54 350.02 596.43 351.06 596.37 351.58 C 599.17 351.87 601.86 351.08 604.55 350.39 L 604.33 349.42 C 606.20 349.36 608.06 349.43 609.93 349.67 C 607.91 350.13 607.17 352.05 606.15 353.55 C 605.76 353.55 604.98 353.55 604.59 353.54 C 604.55 354.03 604.48 355.00 604.44 355.49 C 603.96 355.46 602.99 355.38 602.50 355.35 L 602.47 356.66 C 601.96 356.60 600.95 356.47 600.45 356.40 C 600.40 358.15 600.38 359.90 600.39 361.66 C 602.47 361.62 604.54 361.54 606.63 361.47 L 606.56 360.14 C 607.04 360.33 607.98 360.72 608.45 360.91 L 608.39 359.58 C 609.78 359.46 611.18 359.34 612.59 359.23 L 612.45 361.51 L 611.31 361.37 L 611.56 362.58 L 610.27 362.44 L 610.70 363.59 L 609.42 363.28 L 609.48 364.32 C 607.22 365.06 605.84 367.39 603.31 367.62 L 603.74 368.66 L 602.49 368.39 C 602.52 369.19 602.58 370.80 602.61 371.60 L 603.92 371.51 L 603.17 372.72 C 602.64 374.26 602.34 375.86 602.17 377.48 C 601.73 372.76 599.71 368.41 597.79 364.14 C 594.13 356.22 589.16 348.94 583.26 342.53 C 578.50 342.43 573.69 342.06 568.98 342.88 C 564.70 343.67 560.34 343.36 556.02 343.37 C 546.59 343.38 537.15 343.38 527.72 343.38 C 526.73 344.91 525.77 346.45 524.78 347.98 C 521.78 351.14 519.02 354.55 517.21 358.56 L 516.27 358.61 C 516.40 359.06 516.64 359.96 516.76 360.41 L 515.32 360.57 C 515.41 361.04 515.59 361.98 515.69 362.45 L 514.30 362.56 C 514.40 363.03 514.60 363.98 514.70 364.45 L 513.25 364.61 C 513.39 365.07 513.67 365.99 513.81 366.45 L 512.52 366.49 C 512.51 367.24 512.49 368.74 512.47 369.50 L 511.27 369.51 C 511.34 369.89 511.49 370.63 511.56 371.01 C 511.29 371.48 510.75 372.43 510.48 372.91 C 508.65 375.24 508.19 378.18 507.71 381.02 C 507.98 371.95 510.29 363.04 513.58 354.63 C 515.07 350.54 517.66 346.92 518.80 342.69 C 516.56 342.49 514.26 342.55 512.10 341.90 C 509.97 341.00 508.71 338.94 507.36 337.20 C 507.39 336.75 507.43 335.85 507.46 335.40 L 506.56 335.66 C 506.57 334.58 506.57 332.42 506.57 331.33 Z" />
<path fill="#707d83" d=" M 507.36 337.20 C 508.71 338.94 509.97 341.00 512.10 341.90 C 514.26 342.55 516.56 342.49 518.80 342.69 C 517.66 346.92 515.07 350.54 513.58 354.63 C 510.29 363.04 507.98 371.95 507.71 381.02 C 508.19 378.18 508.65 375.24 510.48 372.91 C 510.60 377.75 507.88 382.21 508.43 387.07 C 509.17 389.35 510.69 391.27 511.94 393.29 C 509.45 392.07 507.94 389.72 506.60 387.41 C 506.10 393.39 507.62 399.26 507.64 405.21 L 506.92 406.26 C 505.17 398.95 504.97 391.37 505.51 383.91 C 506.57 374.79 507.87 365.60 511.17 356.98 C 512.72 352.51 514.96 348.33 516.99 344.06 C 512.92 344.14 506.87 342.27 507.36 337.20 Z" />
<path fill="#7f7d7e" d=" M 568.98 342.88 C 573.69 342.06 578.50 342.43 583.26 342.53 C 589.16 348.94 594.13 356.22 597.79 364.14 C 599.71 368.41 601.73 372.76 602.17 377.48 C 602.20 378.26 602.27 379.81 602.30 380.59 C 598.70 368.17 593.30 356.10 584.82 346.20 C 581.70 341.92 575.67 344.32 571.22 343.79 C 571.36 344.31 571.65 345.36 571.79 345.88 C 570.85 344.88 569.90 343.88 568.98 342.88 Z" />
<path fill="#870e54" d=" M 311.86 343.62 C 313.25 341.68 315.92 342.50 317.95 342.24 C 322.35 341.98 326.64 343.01 331.00 343.37 C 338.58 343.52 346.17 343.12 353.75 343.61 C 349.96 345.69 345.63 346.71 342.10 349.26 C 332.63 355.76 325.80 366.45 324.90 378.00 C 324.78 381.29 324.94 385.05 327.54 387.45 C 327.33 387.69 326.91 388.18 326.70 388.43 C 326.45 388.72 325.96 389.32 325.71 389.62 C 325.01 394.08 326.13 398.57 326.72 402.99 C 327.63 410.08 331.97 415.98 334.51 422.52 C 331.42 420.13 330.28 416.26 328.67 412.88 C 323.16 413.95 319.06 418.20 313.72 419.75 C 311.87 413.26 309.43 406.80 309.35 399.97 C 309.21 388.95 308.44 377.63 312.14 367.05 C 312.48 366.05 312.81 365.06 313.16 364.07 C 315.71 356.49 320.30 349.93 325.08 343.62 C 320.68 343.43 316.27 343.46 311.86 343.62 Z" />
<path fill="#870e54" d=" M 568.98 342.88 C 569.90 343.88 570.85 344.88 571.79 345.88 C 582.68 358.40 587.20 375.60 586.62 391.96 C 586.77 397.70 586.31 403.47 584.79 409.03 C 584.65 409.76 584.35 411.21 584.20 411.94 C 583.47 414.18 582.85 416.46 582.19 418.73 C 576.17 418.85 571.76 413.97 566.45 411.83 C 570.13 402.00 570.11 391.31 569.21 381.00 C 567.37 369.81 562.75 358.46 553.87 351.04 C 551.24 349.11 548.41 346.61 544.91 347.02 C 543.91 346.60 542.95 346.09 542.01 345.61 C 536.10 344.63 530.29 345.89 524.78 347.98 C 525.77 346.45 526.73 344.91 527.72 343.38 C 537.15 343.38 546.59 343.38 556.02 343.37 C 560.34 343.36 564.70 343.67 568.98 342.88 Z" />
<path fill="#ffffff" d=" M 310.98 344.82 C 311.20 344.52 311.64 343.92 311.86 343.62 C 316.27 343.46 320.68 343.43 325.08 343.62 C 320.30 349.93 315.71 356.49 313.16 364.07 C 312.81 365.06 312.48 366.05 312.14 367.05 C 308.44 377.63 309.21 388.95 309.35 399.97 C 309.43 406.80 311.87 413.26 313.72 419.75 C 316.17 426.54 320.32 432.61 325.01 438.06 C 329.72 444.06 336.84 447.40 344.20 448.80 C 357.44 451.84 370.16 443.10 377.53 432.71 C 377.60 434.37 377.70 436.17 376.58 437.55 C 369.94 447.80 360.14 456.69 348.04 459.67 C 337.91 462.35 326.93 459.61 318.51 453.59 C 307.08 445.60 299.72 433.05 295.48 419.99 C 292.73 411.22 290.69 402.00 291.45 392.76 C 292.35 389.57 293.01 386.29 292.83 382.96 C 294.69 373.82 298.05 364.97 302.85 356.97 C 304.45 354.21 306.67 351.77 307.62 348.67 C 307.75 348.54 308.02 348.28 308.16 348.15 C 309.17 347.10 310.11 345.98 310.98 344.82 Z" />
<path fill="#bf85a7" d=" M 353.75 343.61 C 357.18 343.65 360.59 344.11 363.97 344.70 L 363.26 346.49 C 359.36 346.20 355.37 345.07 351.53 346.46 C 334.74 351.16 322.80 370.34 327.54 387.45 C 324.94 385.05 324.78 381.29 324.90 378.00 C 325.80 366.45 332.63 355.76 342.10 349.26 C 345.63 346.71 349.96 345.69 353.75 343.61 Z" />
<path fill="#ffffff" d=" M 571.22 343.79 C 575.67 344.32 581.70 341.92 584.82 346.20 C 593.30 356.10 598.70 368.17 602.30 380.59 C 602.46 382.11 602.58 383.63 602.72 385.16 C 602.93 388.12 603.50 391.05 604.29 393.91 C 604.97 398.59 604.34 403.37 603.40 407.98 C 601.83 416.47 599.17 424.81 595.18 432.48 C 590.09 440.68 584.80 449.37 576.11 454.22 C 567.13 460.17 555.51 462.58 545.16 459.05 C 540.25 457.28 535.22 455.24 531.40 451.57 C 525.49 446.14 519.85 440.16 516.31 432.87 C 514.83 429.62 512.84 426.41 512.80 422.73 C 514.62 426.43 516.57 430.13 519.24 433.31 C 520.78 437.27 524.21 439.95 527.43 442.52 C 531.66 445.83 536.69 448.05 541.94 449.16 C 548.90 451.18 555.79 448.18 561.93 445.12 C 565.28 443.35 568.29 440.95 570.67 437.99 C 575.45 432.21 579.76 425.88 582.19 418.73 C 582.85 416.46 583.47 414.18 584.20 411.94 C 584.35 411.21 584.65 409.76 584.79 409.03 C 586.31 403.47 586.77 397.70 586.62 391.96 C 587.20 375.60 582.68 358.40 571.79 345.88 C 571.65 345.36 571.36 344.31 571.22 343.79 Z" />
<path fill="#ffffff" d=" M 351.53 346.46 C 355.37 345.07 359.36 346.20 363.26 346.49 C 363.84 346.51 364.98 346.55 365.56 346.56 C 365.55 347.01 365.53 347.91 365.52 348.36 C 365.91 348.41 366.70 348.51 367.10 348.56 C 367.68 349.53 368.44 350.36 369.37 351.03 C 369.37 351.40 369.39 352.13 369.40 352.49 L 370.79 352.65 C 370.63 353.10 370.30 353.99 370.14 354.43 L 371.42 354.47 C 371.83 359.82 371.75 365.18 371.43 370.52 L 370.45 370.44 C 370.46 371.21 370.48 372.75 370.49 373.53 L 369.19 373.53 C 369.34 374.00 369.63 374.94 369.77 375.41 L 368.33 375.55 C 368.42 376.03 368.61 376.97 368.70 377.45 L 367.31 377.57 C 367.40 378.02 367.58 378.92 367.67 379.37 L 366.37 379.49 C 366.36 379.84 366.34 380.54 366.33 380.90 C 362.92 384.99 359.42 389.00 354.99 392.05 C 352.94 393.18 350.79 394.15 348.55 394.84 L 348.57 395.49 C 343.86 395.82 339.13 395.87 334.42 395.49 L 334.37 394.15 C 334.03 394.30 333.34 394.58 333.00 394.73 C 331.43 393.22 329.87 391.70 328.36 390.15 C 328.39 389.70 328.45 388.80 328.48 388.36 L 326.70 388.43 C 326.91 388.18 327.33 387.69 327.54 387.45 C 322.80 370.34 334.74 351.16 351.53 346.46 Z" />
<path fill="#ffffff" d=" M 524.78 347.98 C 530.29 345.89 536.10 344.63 542.01 345.61 C 542.95 346.09 543.91 346.60 544.91 347.02 C 545.54 347.23 546.80 347.65 547.43 347.86 C 547.43 348.26 547.43 349.06 547.42 349.46 C 547.85 349.50 548.71 349.59 549.14 349.64 C 549.61 350.92 550.13 352.19 550.62 353.48 L 551.50 353.48 C 551.50 354.25 551.48 355.79 551.48 356.56 L 552.47 356.45 C 552.55 360.48 552.53 364.51 552.43 368.55 L 551.69 368.39 C 551.47 370.00 551.42 371.73 550.38 373.08 C 550.47 373.40 550.65 374.05 550.74 374.37 L 549.30 374.53 C 549.40 375.00 549.59 375.96 549.69 376.44 L 548.24 376.60 C 548.37 377.05 548.63 377.96 548.76 378.41 L 547.68 378.40 C 547.23 379.43 546.79 380.46 546.35 381.50 L 545.87 381.68 C 543.29 385.38 539.86 388.34 536.54 391.34 C 534.90 392.26 533.23 393.11 531.52 393.86 L 531.39 394.85 C 530.93 394.67 530.02 394.31 529.57 394.13 L 529.52 395.41 C 523.68 395.46 516.93 397.25 511.94 393.29 C 510.69 391.27 509.17 389.35 508.43 387.07 C 507.88 382.21 510.60 377.75 510.48 372.91 C 510.75 372.43 511.29 371.48 511.56 371.01 C 511.49 370.63 511.34 369.89 511.27 369.51 L 512.47 369.50 C 512.49 368.74 512.51 367.24 512.52 366.49 L 513.81 366.45 C 513.67 365.99 513.39 365.07 513.25 364.61 L 514.70 364.45 C 514.60 363.98 514.40 363.03 514.30 362.56 L 515.69 362.45 C 515.59 361.98 515.41 361.04 515.32 360.57 L 516.76 360.41 C 516.64 359.96 516.40 359.06 516.27 358.61 L 517.21 358.56 C 519.02 354.55 521.78 351.14 524.78 347.98 Z" />
<path fill="#000000" d=" M 544.91 347.02 C 548.41 346.61 551.24 349.11 553.87 351.04 C 562.75 358.46 567.37 369.81 569.21 381.00 C 570.11 391.31 570.13 402.00 566.45 411.83 C 564.84 416.05 562.90 420.21 560.13 423.80 C 556.47 427.94 552.43 431.82 547.59 434.56 C 543.19 437.08 537.89 436.88 533.03 436.29 C 524.13 434.22 517.26 427.30 513.03 419.46 C 512.81 419.44 512.36 419.40 512.13 419.38 L 511.65 419.34 C 511.21 417.69 510.69 416.06 510.40 414.38 L 509.59 414.62 C 509.53 413.92 509.43 412.52 509.38 411.82 C 508.45 410.50 508.48 408.86 508.37 407.34 L 507.49 407.62 C 507.53 407.02 507.60 405.81 507.64 405.21 C 507.62 399.26 506.10 393.39 506.60 387.41 C 507.94 389.72 509.45 392.07 511.94 393.29 C 516.93 397.25 523.68 395.46 529.52 395.41 L 529.57 394.13 C 530.02 394.31 530.93 394.67 531.39 394.85 L 531.52 393.86 C 533.23 393.11 534.90 392.26 536.54 391.34 C 539.86 388.34 543.29 385.38 545.87 381.68 L 546.35 381.50 C 546.79 380.46 547.23 379.43 547.68 378.40 L 548.76 378.41 C 548.63 377.96 548.37 377.05 548.24 376.60 L 549.69 376.44 C 549.59 375.96 549.40 375.00 549.30 374.53 L 550.74 374.37 C 550.65 374.05 550.47 373.40 550.38 373.08 C 551.42 371.73 551.47 370.00 551.69 368.39 L 552.43 368.55 C 552.53 364.51 552.55 360.48 552.47 356.45 L 551.48 356.56 C 551.48 355.79 551.50 354.25 551.50 353.48 L 550.62 353.48 C 550.13 352.19 549.61 350.92 549.14 349.64 C 548.71 349.59 547.85 349.50 547.42 349.46 C 547.43 349.06 547.43 348.26 547.43 347.86 C 546.80 347.65 545.54 347.23 544.91 347.02 Z" />
<path fill="#556164" d=" M 293.39 374.24 C 297.03 365.26 300.43 355.47 307.62 348.67 C 306.67 351.77 304.45 354.21 302.85 356.97 C 298.05 364.97 294.69 373.82 292.83 382.96 C 292.07 384.31 291.29 385.66 290.51 387.00 C 290.49 386.33 290.47 384.98 290.45 384.31 C 289.96 379.14 291.86 374.15 291.77 369.03 C 291.79 367.09 287.65 367.66 288.68 365.55 C 290.45 365.73 292.01 366.71 293.32 367.85 C 293.49 369.97 293.51 372.10 293.39 374.24 Z" />
<path fill="#575f64" d=" M 603.17 372.72 C 605.27 374.26 604.37 377.31 604.75 379.55 C 604.70 381.57 604.62 383.59 604.55 385.61 C 604.09 385.50 603.18 385.27 602.72 385.16 C 602.58 383.63 602.46 382.11 602.30 380.59 C 602.27 379.81 602.20 378.26 602.17 377.48 C 602.34 375.86 602.64 374.26 603.17 372.72 Z" />
<path fill="#b4c5ce" d=" M 604.75 379.55 C 606.28 381.33 606.00 383.76 606.09 385.95 C 606.01 388.67 606.30 391.74 604.29 393.91 C 603.50 391.05 602.93 388.12 602.72 385.16 C 603.18 385.27 604.09 385.50 604.55 385.61 C 604.62 383.59 604.70 381.57 604.75 379.55 Z" />
<path fill="#b4c1cd" d=" M 289.60 384.32 L 290.45 384.31 C 290.47 384.98 290.49 386.33 290.51 387.00 C 291.29 385.66 292.07 384.31 292.83 382.96 C 293.01 386.29 292.35 389.57 291.45 392.76 L 291.31 393.31 C 290.86 393.40 289.96 393.56 289.51 393.65 C 289.43 390.53 289.46 387.42 289.60 384.32 Z" />
<path fill="#ffffff" d=" M 369.68 390.89 L 369.39 389.57 C 372.44 389.23 375.52 389.18 378.57 389.67 C 378.48 390.12 378.30 391.03 378.21 391.48 L 379.51 391.39 C 379.59 394.12 379.55 396.85 379.42 399.59 L 378.09 399.50 C 378.26 399.98 378.60 400.93 378.77 401.40 L 377.32 401.27 L 377.68 402.61 L 376.37 402.49 C 376.38 402.98 376.41 403.95 376.42 404.44 C 375.94 404.43 374.99 404.41 374.52 404.40 L 374.62 405.70 L 373.29 405.36 L 373.41 406.80 C 372.93 406.63 371.97 406.28 371.49 406.11 L 371.62 407.41 C 369.84 407.44 368.06 407.48 366.29 407.52 L 366.45 406.21 C 365.97 406.37 365.01 406.70 364.53 406.86 L 364.82 405.40 L 363.53 405.56 C 363.27 402.48 363.30 399.40 363.52 396.33 L 364.86 396.45 C 364.68 395.98 364.32 395.04 364.14 394.57 L 365.20 394.64 C 365.78 393.07 366.91 391.75 368.51 391.16 L 368.37 390.15 L 369.68 390.89 Z" />
<path fill="#ffffff" d=" M 548.60 390.23 C 549.06 390.37 549.98 390.65 550.44 390.79 L 550.32 389.47 C 553.09 389.26 555.86 389.25 558.63 389.52 L 558.17 390.83 L 559.45 390.38 C 559.83 393.76 559.75 397.17 559.41 400.56 L 558.20 400.45 C 558.28 400.87 558.43 401.73 558.51 402.15 C 557.13 402.33 556.40 403.11 556.33 404.48 C 555.88 404.52 554.97 404.59 554.52 404.62 C 554.51 405.05 554.50 405.91 554.49 406.34 C 553.70 406.39 552.11 406.49 551.32 406.54 L 551.71 407.50 C 549.93 407.47 548.15 407.46 546.38 407.46 L 546.59 406.32 C 546.07 406.36 545.04 406.44 544.52 406.48 C 544.56 405.97 544.63 404.94 544.66 404.42 L 543.51 404.62 C 543.47 402.19 543.48 399.75 543.51 397.33 L 544.50 397.69 C 544.54 396.90 544.62 395.33 544.66 394.55 C 545.10 394.52 546.00 394.46 546.45 394.44 C 546.43 393.95 546.40 392.96 546.38 392.47 L 547.47 392.68 L 547.55 391.56 L 548.72 391.47 L 548.60 390.23 Z" />
<path fill="#dd5fae" d=" M 560.13 423.80 C 562.90 420.21 564.84 416.05 566.45 411.83 C 571.76 413.97 576.17 418.85 582.19 418.73 C 579.76 425.88 575.45 432.21 570.67 437.99 C 567.63 434.98 565.49 431.27 563.01 427.84 C 562.04 426.49 561.08 425.14 560.13 423.80 Z" />
<path fill="#dd5fae" d=" M 313.72 419.75 C 319.06 418.20 323.16 413.95 328.67 412.88 C 330.28 416.26 331.42 420.13 334.51 422.52 C 334.52 423.35 334.54 424.19 334.56 425.04 C 331.37 429.38 328.51 433.95 325.01 438.06 C 320.32 432.61 316.17 426.54 313.72 419.75 Z" />
<path fill="#870e54" d=" M 378.55 425.41 C 381.05 422.66 382.02 418.88 384.62 416.22 C 380.48 427.36 373.70 438.26 363.11 444.23 C 357.96 447.25 351.92 448.11 346.04 447.84 C 346.43 443.27 347.44 438.77 347.47 434.17 C 350.58 436.22 354.32 436.84 357.99 436.64 C 366.29 436.92 373.50 431.54 378.55 425.41 Z" />
<path fill="#ffffff" d=" M 12.34 428.01 C 37.71 423.23 63.37 420.08 89.10 418.19 C 95.36 417.10 101.75 417.90 108.04 417.01 C 113.99 416.24 120.01 416.61 125.99 416.42 C 147.98 416.26 169.98 416.07 191.96 416.59 C 193.28 419.69 194.65 422.85 194.67 426.28 C 187.43 426.47 180.18 426.24 172.96 426.78 C 165.95 427.72 158.85 427.77 151.80 427.44 C 153.47 427.73 155.14 428.02 156.81 428.33 C 150.22 428.18 143.71 429.29 137.15 429.67 C 92.93 434.15 48.90 441.34 6.02 453.14 C 4.22 453.55 2.66 454.58 1.15 455.59 C 1.52 458.43 2.41 461.16 3.76 463.69 C 7.38 463.69 10.90 462.85 14.33 461.74 C 31.65 457.10 49.19 453.32 66.81 450.04 C 81.76 447.60 96.66 444.63 111.77 443.37 C 111.11 443.20 109.79 442.87 109.13 442.70 C 116.15 442.94 123.07 441.63 130.02 440.94 C 140.08 439.96 150.13 438.89 160.22 438.23 C 166.76 437.09 173.44 437.91 179.99 436.89 C 187.02 436.23 194.10 436.52 201.15 436.40 C 214.86 460.66 235.99 480.14 259.98 494.02 C 256.32 496.23 251.98 498.48 250.65 502.88 C 249.91 506.75 250.37 510.71 250.59 514.62 C 249.77 515.37 248.95 516.12 248.12 516.86 C 234.15 526.85 225.10 542.04 219.18 557.87 C 217.56 562.60 215.17 567.24 215.45 572.39 C 219.03 565.14 224.63 559.09 230.40 553.51 C 233.67 550.27 237.67 547.88 241.84 545.99 C 241.52 547.19 241.36 548.51 240.62 549.56 C 229.27 565.69 226.23 585.94 225.13 605.18 C 224.08 613.73 224.70 622.38 224.62 630.97 C 225.64 639.30 225.60 647.70 225.60 656.08 C 225.91 653.39 226.16 650.69 226.46 648.01 C 225.95 660.55 228.01 672.98 229.38 685.41 C 230.99 694.50 230.96 703.79 230.51 712.99 C 228.86 726.34 220.96 738.42 210.29 746.41 C 208.25 747.93 205.82 749.18 204.69 751.61 C 218.80 750.76 233.43 745.85 243.17 735.18 C 247.64 730.60 250.79 724.86 252.53 718.71 C 252.57 721.83 252.55 724.95 252.47 728.09 C 250.15 734.36 246.85 740.28 242.24 745.17 C 239.42 748.77 235.23 750.99 232.55 754.70 C 243.35 754.35 253.90 749.44 261.80 742.15 C 261.42 746.24 260.47 750.24 260.00 754.32 C 265.87 752.90 270.65 748.93 275.07 745.02 C 286.69 734.61 294.51 719.49 294.79 703.77 C 295.15 703.76 295.88 703.75 296.24 703.75 C 296.30 704.62 296.37 705.51 296.44 706.41 C 296.08 712.61 296.71 718.81 296.54 725.01 C 296.53 730.61 295.42 736.14 295.39 741.74 C 295.91 741.65 296.93 741.48 297.45 741.39 C 297.54 741.26 297.72 741.00 297.81 740.87 C 301.30 735.71 305.86 731.37 309.20 726.10 C 318.37 712.24 324.81 696.62 328.73 680.51 C 329.08 680.53 329.79 680.57 330.14 680.58 C 331.38 683.95 333.01 687.16 334.94 690.19 C 337.67 694.28 336.65 699.34 336.80 703.97 C 336.66 708.88 337.34 714.06 335.27 718.68 C 331.83 726.71 326.47 734.20 318.95 738.85 C 314.32 741.69 308.30 742.53 304.92 747.16 C 302.44 749.95 301.59 754.18 303.16 757.62 C 304.92 760.79 308.12 763.54 311.91 763.60 C 318.96 763.91 326.03 763.77 333.08 763.40 C 346.48 761.77 360.12 757.49 370.50 748.56 C 380.79 739.86 386.79 726.42 386.61 712.98 C 386.60 685.81 386.59 658.64 386.62 631.47 C 387.89 629.99 388.94 628.33 389.93 626.65 L 392.62 625.81 C 392.73 655.54 392.63 685.28 392.67 715.02 C 392.62 721.04 392.97 727.15 391.55 733.07 C 389.35 742.73 384.76 751.87 378.20 759.32 C 375.94 761.99 373.26 764.36 371.51 767.42 C 370.07 769.78 370.55 772.65 370.36 775.28 C 372.69 777.93 375.13 781.12 378.93 781.48 C 384.92 781.97 391.07 782.20 396.98 780.99 C 408.05 777.77 418.54 772.00 426.55 763.63 C 439.16 751.39 445.25 733.42 444.57 716.04 C 444.85 701.03 444.01 685.97 445.36 671.00 C 445.40 644.65 445.55 618.31 445.53 591.96 C 445.61 588.91 444.69 585.17 447.79 583.30 C 448.94 584.65 450.63 585.92 450.28 587.95 C 450.34 624.31 450.46 660.68 450.56 697.04 C 450.64 705.37 450.20 713.73 451.25 722.01 C 451.36 743.65 464.35 764.32 483.25 774.64 C 490.03 778.16 497.24 781.76 505.05 781.77 C 509.07 781.83 513.12 781.98 517.12 781.42 C 520.25 780.90 522.47 778.43 524.67 776.36 C 524.62 773.57 525.00 770.70 524.25 767.99 C 522.02 763.36 517.75 760.23 514.72 756.19 C 507.06 746.15 502.73 733.63 502.51 721.01 C 502.51 679.98 502.50 638.95 502.51 597.92 C 503.44 598.32 504.60 598.66 504.77 599.86 C 507.63 607.55 508.74 615.83 508.58 624.01 C 508.51 652.68 508.63 681.35 508.51 710.03 C 508.82 718.31 510.02 726.76 513.84 734.23 C 518.61 744.25 527.34 751.89 537.35 756.47 C 552.15 763.62 568.98 764.58 585.12 763.42 C 589.38 762.51 593.33 758.62 592.72 753.99 C 593.34 747.62 587.17 743.40 581.90 741.41 C 571.45 737.59 564.05 728.26 560.10 718.15 C 557.61 711.74 557.57 704.74 557.71 697.96 C 557.70 664.65 557.75 631.35 557.68 598.05 C 557.92 586.18 555.49 574.38 551.56 563.22 C 550.91 561.30 550.50 559.31 550.12 557.34 C 565.28 558.96 579.71 564.89 595.02 565.57 C 600.48 565.71 606.70 565.94 611.04 562.02 C 615.01 558.94 613.76 553.29 613.53 548.94 C 612.12 543.01 606.16 540.30 601.84 536.76 C 614.12 535.91 627.15 535.29 638.08 529.03 C 643.47 526.22 646.22 519.52 643.96 513.80 C 641.81 509.27 636.93 507.25 632.79 504.98 C 636.95 503.12 641.78 501.53 644.18 497.32 C 646.16 494.64 645.04 491.10 646.00 488.12 C 649.57 484.87 653.89 482.55 657.56 479.40 C 672.47 467.50 685.44 453.04 694.86 436.40 C 703.57 436.47 712.32 436.23 720.98 437.39 C 729.30 437.33 737.54 438.43 745.83 439.01 C 791.01 442.95 836.02 449.82 879.94 461.26 C 883.96 462.43 887.98 463.75 892.23 463.70 C 893.52 461.26 894.48 458.65 894.71 455.88 C 894.26 455.39 893.35 454.41 892.89 453.91 C 861.99 445.32 830.48 439.02 798.74 434.50 C 791.37 433.53 784.02 432.14 776.57 432.32 C 779.09 432.00 781.62 431.69 784.16 431.38 C 781.42 431.49 778.68 431.68 775.96 431.53 C 751.16 428.83 726.32 426.26 701.35 426.29 C 701.17 422.68 702.80 419.45 704.52 416.41 C 731.01 416.30 757.52 416.04 784.00 416.69 C 791.59 417.90 799.30 417.03 806.89 418.20 C 834.77 420.22 862.58 423.76 890.01 429.24 C 892.37 430.16 894.29 428.28 896.00 426.94 L 896.00 896.00 L 0.00 896.00 L 0.00 425.44 C 0.44 426.27 1.31 427.92 1.75 428.75 C 5.29 428.78 8.86 428.71 12.34 428.01 Z" />
<path fill="#b47c9e" d=" M 384.62 416.22 L 385.15 415.57 C 385.76 417.50 384.75 419.32 384.05 421.05 C 382.20 425.11 380.04 429.03 377.53 432.71 C 370.16 443.10 357.44 451.84 344.20 448.80 C 344.84 444.25 345.63 439.72 346.33 435.18 C 341.86 432.48 337.94 429.00 334.56 425.04 C 334.54 424.19 334.52 423.35 334.51 422.52 C 338.04 427.19 342.25 431.40 347.47 434.17 C 347.44 438.77 346.43 443.27 346.04 447.84 C 351.92 448.11 357.96 447.25 363.11 444.23 C 373.70 438.26 380.48 427.36 384.62 416.22 Z" />
<path fill="#870e54" d=" M 513.03 419.46 C 517.26 427.30 524.13 434.22 533.03 436.29 C 537.89 436.88 543.19 437.08 547.59 434.56 C 548.25 438.90 548.96 443.24 549.78 447.57 C 543.16 448.48 536.34 446.84 530.75 443.22 C 526.35 440.62 523.10 436.59 519.24 433.31 C 516.57 430.13 514.62 426.43 512.80 422.73 C 512.63 421.89 512.30 420.21 512.13 419.38 C 512.36 419.40 512.81 419.44 513.03 419.46 Z" />
<path fill="#f8c0e1" d=" M 325.01 438.06 C 328.51 433.95 331.37 429.38 334.56 425.04 C 337.94 429.00 341.86 432.48 346.33 435.18 C 345.63 439.72 344.84 444.25 344.20 448.80 C 336.84 447.40 329.72 444.06 325.01 438.06 Z" />
<path fill="#b37699" d=" M 547.59 434.56 C 552.43 431.82 556.47 427.94 560.13 423.80 C 561.08 425.14 562.04 426.49 563.01 427.84 C 562.24 426.92 561.45 426.03 560.68 425.15 C 557.32 429.02 553.51 432.49 549.19 435.25 C 549.88 439.72 550.75 444.17 550.79 448.71 C 547.86 449.14 544.89 449.49 541.94 449.16 C 536.69 448.05 531.66 445.83 527.43 442.52 C 524.21 439.95 520.78 437.27 519.24 433.31 C 523.10 436.59 526.35 440.62 530.75 443.22 C 536.34 446.84 543.16 448.48 549.78 447.57 C 548.96 443.24 548.25 438.90 547.59 434.56 Z" />
<path fill="#f8c0e1" d=" M 560.68 425.15 C 561.45 426.03 562.24 426.92 563.01 427.84 C 565.49 431.27 567.63 434.98 570.67 437.99 C 568.29 440.95 565.28 443.35 561.93 445.12 C 555.79 448.18 548.90 451.18 541.94 449.16 C 544.89 449.49 547.86 449.14 550.79 448.71 C 550.75 444.17 549.88 439.72 549.19 435.25 C 553.51 432.49 557.32 429.02 560.68 425.15 Z" />
<path fill="#6aaadd" d=" M 446.09 432.66 C 449.65 431.91 453.36 433.68 455.65 436.38 C 458.53 439.10 457.82 443.48 457.36 447.00 C 455.13 451.78 448.89 455.03 443.91 452.51 C 438.27 450.58 435.56 443.09 438.70 438.01 C 440.04 435.07 443.08 433.42 446.09 432.66 Z" />
<path fill="#6aaadd" d=" M 419.37 465.40 C 423.61 465.02 424.51 469.74 426.66 472.36 C 432.17 479.11 442.23 481.55 450.18 477.92 C 452.51 476.76 454.95 477.51 456.58 479.41 C 457.06 483.70 452.32 484.83 449.09 485.75 C 436.15 489.35 421.29 481.89 416.63 469.25 C 417.53 467.95 418.44 466.67 419.37 465.40 Z" />
<path fill="#9dd9f8" d=" M 256.96 505.79 C 258.75 501.58 263.86 500.45 267.99 500.45 C 273.43 499.98 278.04 503.29 282.83 505.28 C 299.86 512.55 317.63 518.11 335.76 521.83 C 335.96 528.76 334.48 536.00 337.37 542.59 C 339.15 550.56 341.98 558.35 346.37 565.26 C 345.99 566.23 345.62 567.20 345.24 568.17 C 341.49 568.35 337.72 568.66 334.08 569.63 C 323.22 572.48 312.28 575.28 301.08 576.35 C 296.95 576.56 292.21 576.98 288.82 574.13 C 287.89 571.22 288.19 567.73 290.48 565.53 C 296.45 558.67 305.74 556.62 314.21 554.65 C 318.09 553.60 322.30 553.27 325.69 550.89 C 318.65 548.65 311.20 549.80 303.96 549.28 C 291.31 548.15 278.34 547.80 266.24 543.51 C 262.68 542.16 258.47 540.06 257.57 536.00 C 257.97 532.86 261.16 531.15 263.83 530.10 C 273.80 526.46 284.56 526.83 294.97 525.72 C 299.62 525.22 304.59 526.41 308.88 524.03 C 296.89 520.23 284.33 518.50 271.88 516.88 C 268.06 516.27 264.12 515.78 260.58 514.11 C 257.63 512.64 255.60 509.01 256.96 505.79 Z" />
<path fill="#9dd9f8" d=" M 592.76 513.41 C 597.70 511.93 602.39 509.15 607.68 509.23 C 615.83 509.22 624.11 510.12 631.82 512.87 C 634.38 513.93 637.82 515.82 637.55 519.03 C 635.21 523.61 630.20 525.89 625.46 527.14 C 615.21 529.85 604.58 530.69 594.03 531.43 C 585.94 531.26 577.88 532.05 569.84 532.88 C 577.68 537.78 587.60 537.22 595.84 541.30 C 601.53 543.98 608.19 548.57 607.63 555.69 C 606.10 556.69 604.71 558.17 602.81 558.35 C 595.80 559.04 588.73 558.34 581.88 556.81 C 567.73 554.39 553.79 548.10 539.19 550.95 C 531.69 552.75 523.08 555.92 520.06 563.73 C 527.09 560.85 534.19 556.99 542.05 557.62 C 546.20 567.03 548.94 577.04 550.27 587.24 C 551.35 602.80 549.83 618.46 551.32 634.01 C 551.40 640.33 549.98 646.64 550.93 652.97 C 551.77 658.32 550.25 663.69 551.05 669.05 C 551.77 674.37 550.13 679.69 550.99 685.01 C 552.17 693.01 549.73 701.02 550.96 709.03 C 551.44 721.11 557.84 732.31 566.50 740.46 C 570.71 744.48 576.24 746.51 581.42 748.93 C 583.31 749.98 585.85 751.53 585.61 754.03 C 585.61 756.04 583.15 756.65 581.59 757.14 C 575.72 757.92 569.80 757.10 563.95 756.56 C 553.87 755.70 543.83 752.89 535.19 747.53 C 526.24 742.17 519.91 732.98 517.30 722.95 C 515.02 712.44 515.72 701.63 515.63 690.95 C 515.60 667.96 515.68 644.96 515.58 621.97 C 515.68 610.84 512.85 599.80 507.97 589.82 C 505.50 585.22 506.30 579.91 507.58 575.09 C 500.66 576.47 495.01 582.79 495.45 590.02 C 495.47 634.66 495.42 679.31 495.48 723.96 C 496.13 740.06 503.23 755.90 514.93 767.03 C 517.07 768.82 517.95 771.41 517.46 774.16 C 513.27 775.39 508.85 775.96 504.53 775.13 C 492.68 772.68 481.74 766.42 473.42 757.65 C 463.13 747.76 457.76 733.22 458.36 719.03 C 458.68 713.02 457.40 707.04 458.06 701.04 C 459.06 692.35 457.07 683.67 457.65 674.95 C 458.34 664.68 458.84 654.35 457.79 644.08 C 457.06 636.70 458.63 629.37 458.38 621.99 C 458.20 609.63 458.65 597.27 458.07 584.92 C 458.12 581.32 458.63 577.67 457.58 574.16 C 451.49 577.58 443.62 577.89 438.00 573.36 C 437.37 578.88 437.68 584.44 437.64 589.99 C 437.58 632.67 437.55 675.35 437.50 718.03 C 437.17 727.52 435.23 737.10 430.84 745.58 C 424.40 759.12 411.35 768.41 397.50 773.31 C 391.09 775.68 383.57 776.79 377.35 773.31 C 377.36 769.32 381.06 767.16 383.40 764.46 C 394.25 751.95 399.98 735.52 400.36 719.03 C 400.40 689.02 400.36 659.02 400.37 629.01 C 400.50 614.46 400.06 599.88 400.78 585.34 C 410.21 587.20 417.61 594.20 422.95 601.84 C 427.78 608.76 429.76 617.07 433.09 624.71 C 435.22 619.04 434.19 612.91 434.46 607.01 C 434.79 585.62 429.94 562.96 415.63 546.40 C 415.60 545.97 415.54 545.11 415.51 544.68 C 426.81 545.29 437.79 542.28 448.51 539.14 C 448.54 538.75 448.58 537.98 448.61 537.59 C 445.13 535.92 441.59 534.42 438.11 532.79 C 439.49 531.59 441.02 530.36 442.99 530.62 C 461.67 530.64 480.35 530.56 499.02 530.39 C 530.80 528.76 562.50 523.36 592.76 513.41 Z" />
<path fill="#0192cf" d=" M 248.12 516.86 C 249.44 516.70 250.78 516.55 252.11 516.40 C 253.74 517.75 255.36 519.12 257.13 520.30 C 249.26 525.45 241.41 531.53 236.85 539.93 C 241.29 538.60 245.58 536.65 250.25 536.23 C 251.21 539.95 253.04 543.48 255.98 546.04 C 244.55 556.65 238.07 571.44 234.94 586.49 C 232.42 598.47 231.22 610.74 231.43 622.98 C 231.00 645.14 233.50 667.24 236.99 689.11 C 238.99 701.08 240.24 714.04 235.18 725.45 C 233.49 729.56 230.58 733.02 228.79 737.09 C 230.00 736.61 231.37 736.38 232.40 735.53 C 241.28 728.11 247.07 717.77 251.56 707.28 C 253.28 703.43 252.78 699.12 252.74 695.03 C 250.78 669.50 242.08 644.73 242.29 618.96 C 242.35 609.28 241.72 599.49 243.59 589.93 C 246.23 575.06 252.31 560.75 261.92 549.04 C 266.49 550.61 271.17 551.96 275.99 552.50 C 277.80 552.64 279.55 553.18 281.15 554.07 C 269.53 564.41 261.47 578.67 258.68 593.96 C 256.68 604.18 257.47 614.64 257.47 624.99 C 259.00 646.48 263.98 667.56 265.90 689.02 C 267.10 697.74 266.25 706.57 266.46 715.34 C 267.75 716.73 269.35 718.05 269.65 720.06 C 271.42 726.88 270.59 734.00 270.56 740.96 C 275.08 735.64 278.48 729.50 281.51 723.24 C 282.27 721.67 282.66 719.96 282.89 718.25 C 283.71 717.30 284.50 716.30 284.81 715.07 C 286.40 709.81 288.01 704.50 288.51 699.02 C 289.01 688.68 288.98 678.29 287.31 668.06 C 290.52 671.58 293.01 675.65 295.47 679.70 C 301.51 691.80 304.71 705.30 304.53 718.83 C 304.90 718.65 305.64 718.30 306.01 718.13 C 311.45 708.46 316.03 698.31 319.43 687.74 C 322.84 680.66 324.20 672.75 325.49 665.07 C 324.61 653.74 321.82 642.43 322.84 630.98 C 324.14 642.01 326.57 652.90 329.63 663.58 C 331.58 669.74 333.32 676.14 337.16 681.45 C 337.39 684.46 337.52 687.49 337.53 690.52 C 336.88 690.43 335.58 690.27 334.94 690.19 C 333.01 687.16 331.38 683.95 330.14 680.58 C 329.79 680.57 329.08 680.53 328.73 680.51 C 324.81 696.62 318.37 712.24 309.20 726.10 C 305.86 731.37 301.30 735.71 297.81 740.87 C 296.42 729.46 299.87 717.62 296.44 706.41 C 296.37 705.51 296.30 704.62 296.24 703.75 C 295.88 703.75 295.15 703.76 294.79 703.77 C 294.51 719.49 286.69 734.61 275.07 745.02 C 270.65 748.93 265.87 752.90 260.00 754.32 C 260.47 750.24 261.42 746.24 261.80 742.15 C 253.90 749.44 243.35 754.35 232.55 754.70 C 235.23 750.99 239.42 748.77 242.24 745.17 C 246.85 740.28 250.15 734.36 252.47 728.09 C 252.55 724.95 252.57 721.83 252.53 718.71 C 250.79 724.86 247.64 730.60 243.17 735.18 C 233.43 745.85 218.80 750.76 204.69 751.61 C 205.82 749.18 208.25 747.93 210.29 746.41 C 220.96 738.42 228.86 726.34 230.51 712.99 C 230.96 703.79 230.99 694.50 229.38 685.41 C 228.01 672.98 225.95 660.55 226.46 648.01 C 226.16 650.69 225.91 653.39 225.60 656.08 C 225.60 647.70 225.64 639.30 224.62 630.97 C 224.70 622.38 224.08 613.73 225.13 605.18 C 226.23 585.94 229.27 565.69 240.62 549.56 C 241.36 548.51 241.52 547.19 241.84 545.99 C 237.67 547.88 233.67 550.27 230.40 553.51 C 224.63 559.09 219.03 565.14 215.45 572.39 C 215.17 567.24 217.56 562.60 219.18 557.87 C 225.10 542.04 234.15 526.85 248.12 516.86 Z" />
<path fill="#662d89" d=" M 257.13 520.30 C 258.52 520.88 259.92 521.41 261.33 521.96 C 260.12 524.63 257.16 525.49 255.00 527.18 C 252.11 529.28 250.88 532.85 250.25 536.23 C 245.58 536.65 241.29 538.60 236.85 539.93 C 241.41 531.53 249.26 525.45 257.13 520.30 Z" />
<path fill="#0192cf" d=" M 337.58 523.15 C 340.73 523.34 343.89 523.66 346.98 524.35 C 357.59 526.62 368.42 527.56 379.11 529.33 C 390.88 545.30 405.07 559.50 420.86 571.49 C 420.74 566.86 418.13 562.93 415.93 559.03 C 413.05 554.10 409.25 549.75 404.97 545.99 C 400.01 541.73 393.62 539.63 388.70 535.32 C 396.27 534.70 403.46 537.79 411.00 537.65 C 417.15 537.47 423.50 538.28 429.44 536.24 C 427.07 534.27 424.60 532.42 422.13 530.59 C 427.51 530.71 433.31 529.68 438.11 532.79 C 441.59 534.42 445.13 535.92 448.61 537.59 C 448.58 537.98 448.54 538.75 448.51 539.14 C 437.79 542.28 426.81 545.29 415.51 544.68 C 415.54 545.11 415.60 545.97 415.63 546.40 C 429.94 562.96 434.79 585.62 434.46 607.01 C 434.19 612.91 435.22 619.04 433.09 624.71 C 429.76 617.07 427.78 608.76 422.95 601.84 C 417.61 594.20 410.21 587.20 400.78 585.34 C 400.95 584.79 401.14 584.24 401.34 583.71 C 400.36 584.69 398.46 585.26 398.76 586.99 C 398.57 595.69 399.54 604.67 396.49 613.03 C 395.46 618.10 391.90 621.99 389.93 626.65 C 388.94 628.33 387.89 629.99 386.62 631.47 C 384.30 633.85 381.85 636.10 379.21 638.12 C 375.70 640.62 371.93 642.73 368.25 644.97 C 367.94 640.13 370.54 635.78 370.60 631.01 C 370.74 625.32 370.77 619.63 370.49 613.96 C 370.48 612.23 369.76 610.66 369.10 609.13 L 367.56 609.27 C 366.79 609.34 366.03 609.40 365.27 609.48 L 365.30 608.60 C 366.21 608.68 368.02 608.85 368.93 608.93 L 368.70 607.46 C 368.35 604.71 367.83 602.01 367.29 599.31 C 366.13 598.17 364.98 597.04 363.78 595.97 C 363.54 593.83 363.61 591.57 362.52 589.66 C 359.87 584.65 356.51 580.06 353.13 575.52 C 350.65 572.26 348.49 568.77 346.37 565.26 C 341.98 558.35 339.15 550.56 337.37 542.59 C 337.59 536.09 335.96 529.58 337.58 523.15 Z" />
<path fill="#79c240" d=" M 379.11 529.33 C 383.72 529.72 388.37 529.27 392.98 529.71 C 402.65 530.96 412.41 530.29 422.13 530.59 C 424.60 532.42 427.07 534.27 429.44 536.24 C 423.50 538.28 417.15 537.47 411.00 537.65 C 403.46 537.79 396.27 534.70 388.70 535.32 C 393.62 539.63 400.01 541.73 404.97 545.99 C 409.25 549.75 413.05 554.10 415.93 559.03 C 418.13 562.93 420.74 566.86 420.86 571.49 C 405.07 559.50 390.88 545.30 379.11 529.33 Z" />
<path fill="#662d89" d=" M 343.37 532.17 C 344.27 532.33 345.17 532.50 346.07 532.68 C 346.56 534.74 347.32 536.75 348.35 538.62 C 359.75 560.33 375.21 579.63 391.67 597.69 C 392.01 607.44 388.53 617.13 382.75 624.92 C 381.44 626.80 379.59 628.18 377.72 629.47 C 377.66 621.37 378.36 613.09 376.18 605.19 C 374.10 596.95 370.64 589.10 366.26 581.83 C 361.81 574.38 355.65 568.08 351.66 560.34 C 346.83 551.72 343.90 542.05 343.37 532.17 Z" />
<path fill="#662d89" d=" M 255.98 546.04 C 257.89 547.16 259.89 548.14 261.92 549.04 C 252.31 560.75 246.23 575.06 243.59 589.93 C 241.72 599.49 242.35 609.28 242.29 618.96 C 242.08 644.73 250.78 669.50 252.74 695.03 C 252.78 699.12 253.28 703.43 251.56 707.28 C 247.07 717.77 241.28 728.11 232.40 735.53 C 231.37 736.38 230.00 736.61 228.79 737.09 C 230.58 733.02 233.49 729.56 235.18 725.45 C 240.24 714.04 238.99 701.08 236.99 689.11 C 233.50 667.24 231.00 645.14 231.43 622.98 C 231.22 610.74 232.42 598.47 234.94 586.49 C 238.07 571.44 244.55 556.65 255.98 546.04 Z" />
<path fill="#79c240" d=" M 258.68 593.96 C 261.47 578.67 269.53 564.41 281.15 554.07 C 284.87 554.34 288.60 554.30 292.32 554.57 C 290.14 557.68 286.39 559.14 284.20 562.23 C 280.26 567.09 280.33 574.46 283.81 579.54 C 279.64 588.54 275.82 597.97 275.39 608.01 C 274.99 619.68 275.10 631.35 275.48 643.02 C 277.14 661.76 280.81 680.28 282.45 699.03 C 282.75 705.43 282.44 711.85 282.89 718.25 C 282.66 719.96 282.27 721.67 281.51 723.24 C 278.48 729.50 275.08 735.64 270.56 740.96 C 270.59 734.00 271.42 726.88 269.65 720.06 C 269.35 718.05 267.75 716.73 266.46 715.34 C 266.25 706.57 267.10 697.74 265.90 689.02 C 263.98 667.56 259.00 646.48 257.47 624.99 C 257.47 614.64 256.68 604.18 258.68 593.96 Z" />
<path fill="#9dd9f8" d=" M 347.69 575.51 C 349.50 575.50 351.32 575.51 353.13 575.52 C 356.51 580.06 359.87 584.65 362.52 589.66 C 363.61 591.57 363.54 593.83 363.78 595.97 L 362.84 595.51 C 360.92 594.93 358.75 594.02 356.82 595.01 C 355.87 596.29 355.24 597.78 354.51 599.19 C 354.05 598.54 353.14 597.24 352.68 596.59 C 349.92 598.05 347.25 599.69 344.39 600.98 C 345.06 592.44 345.51 583.83 347.69 575.51 Z" />
<path fill="#f67634" d=" M 312.50 581.63 C 321.73 580.37 330.54 576.97 339.83 576.15 C 339.61 578.41 339.35 580.69 338.88 582.93 C 335.61 583.68 332.04 584.04 329.33 586.23 C 324.97 589.69 321.66 594.32 319.10 599.22 C 313.20 611.25 310.64 624.70 310.48 638.03 C 310.96 646.07 311.78 654.13 313.64 661.99 C 315.24 668.84 316.72 675.83 320.08 682.09 C 319.71 683.95 319.58 685.84 319.43 687.74 C 316.03 698.31 311.45 708.46 306.01 718.13 C 305.64 718.30 304.90 718.65 304.53 718.83 C 304.71 705.30 301.51 691.80 295.47 679.70 C 295.80 671.42 293.78 663.28 293.48 655.02 C 293.18 642.02 293.16 629.02 293.34 616.03 C 293.36 604.66 297.24 593.64 302.67 583.78 C 306.01 583.42 309.29 582.61 312.50 581.63 Z" />
<path fill="#f5eb7d" d=" M 275.39 608.01 C 275.82 597.97 279.64 588.54 283.81 579.54 C 288.57 584.57 296.30 584.32 302.67 583.78 C 297.24 593.64 293.36 604.66 293.34 616.03 C 293.16 629.02 293.18 642.02 293.48 655.02 C 293.78 663.28 295.80 671.42 295.47 679.70 C 293.01 675.65 290.52 671.58 287.31 668.06 C 288.98 678.29 289.01 688.68 288.51 699.02 C 288.01 704.50 286.40 709.81 284.81 715.07 C 284.50 716.30 283.71 717.30 282.89 718.25 C 282.44 711.85 282.75 705.43 282.45 699.03 C 280.81 680.28 277.14 661.76 275.48 643.02 C 275.10 631.35 274.99 619.68 275.39 608.01 Z" />
<path fill="#aabaa8" d=" M 283.81 579.54 C 287.50 580.69 291.10 582.38 295.03 582.52 C 300.89 582.99 306.65 581.27 312.50 581.63 C 309.29 582.61 306.01 583.42 302.67 583.78 C 296.30 584.32 288.57 584.57 283.81 579.54 Z" />
<path fill="#f03d31" d=" M 329.33 586.23 C 332.04 584.04 335.61 583.68 338.88 582.93 C 336.69 595.52 337.67 608.31 337.46 621.02 C 337.32 640.58 337.72 660.15 337.26 679.70 C 330.90 666.22 327.68 651.54 325.10 636.94 C 324.23 632.54 324.34 627.78 321.79 623.90 C 320.47 633.60 321.37 643.47 322.50 653.15 C 322.93 657.75 324.62 662.32 323.75 666.98 C 322.87 672.09 321.62 677.14 320.08 682.09 C 316.72 675.83 315.24 668.84 313.64 661.99 C 311.78 654.13 310.96 646.07 310.48 638.03 C 310.64 624.70 313.20 611.25 319.10 599.22 C 321.66 594.32 324.97 589.69 329.33 586.23 Z" />
<path fill="#ffffff" d=" M 356.82 595.01 C 358.75 594.02 360.92 594.93 362.84 595.51 C 363.08 596.79 363.35 598.10 363.61 599.40 C 362.91 600.29 362.21 601.20 361.53 602.11 C 361.54 603.39 361.56 604.67 361.58 605.96 C 359.31 605.49 357.27 604.40 355.43 603.03 C 355.39 605.11 355.34 607.20 355.28 609.29 C 353.47 609.42 351.67 609.44 349.86 609.48 C 349.08 608.72 348.30 607.97 347.53 607.23 C 347.50 605.28 347.47 603.33 347.43 601.39 C 349.72 600.45 352.09 599.74 354.51 599.19 C 355.24 597.78 355.87 596.29 356.82 595.01 Z" />
<path fill="#a2d7ed" d=" M 362.84 595.51 L 363.78 595.97 C 364.98 597.04 366.13 598.17 367.29 599.31 C 366.09 601.52 365.07 603.83 364.22 606.20 C 365.71 606.60 367.20 607.02 368.70 607.46 L 368.93 608.93 C 368.02 608.85 366.21 608.68 365.30 608.60 C 364.26 609.70 363.21 610.80 362.12 611.86 C 362.57 610.37 363.02 608.88 363.47 607.39 C 361.28 607.94 359.10 608.52 356.91 609.05 C 356.50 609.11 355.69 609.23 355.28 609.29 C 355.34 607.20 355.39 605.11 355.43 603.03 C 357.27 604.40 359.31 605.49 361.58 605.96 C 361.56 604.67 361.54 603.39 361.53 602.11 C 362.21 601.20 362.91 600.29 363.61 599.40 C 363.35 598.10 363.08 596.79 362.84 595.51 Z" />
<path fill="#ffffff" d=" M 367.29 599.31 C 367.83 602.01 368.35 604.71 368.70 607.46 C 367.20 607.02 365.71 606.60 364.22 606.20 C 365.07 603.83 366.09 601.52 367.29 599.31 Z" />
<path fill="#9dd9f8" d=" M 344.62 607.33 C 346.47 608.69 348.19 610.28 350.26 611.31 C 352.57 611.77 354.96 611.45 357.30 611.37 C 357.69 612.09 358.48 613.54 358.87 614.26 C 357.71 614.83 356.56 615.40 355.41 615.98 C 355.19 621.55 354.71 627.12 353.95 632.66 C 354.54 632.15 355.15 631.65 355.76 631.17 C 355.90 631.92 356.97 633.39 357.60 632.16 C 358.10 631.47 358.59 630.79 359.08 630.11 C 359.81 628.97 360.18 627.74 360.18 626.42 C 361.47 626.45 362.75 626.49 364.05 626.54 C 364.56 625.56 365.09 624.60 365.62 623.65 C 369.08 619.59 368.51 614.05 369.10 609.13 C 369.76 610.66 370.48 612.23 370.49 613.96 C 370.77 619.63 370.74 625.32 370.60 631.01 C 370.54 635.78 367.94 640.13 368.25 644.97 C 371.93 642.73 375.70 640.62 379.21 638.12 C 379.82 644.74 379.50 651.40 379.56 658.05 C 379.57 676.02 379.56 693.99 379.57 711.97 C 379.79 723.62 374.88 735.38 366.04 743.05 C 354.31 754.13 337.46 756.55 322.00 757.39 C 317.91 757.38 313.10 758.06 309.81 755.05 C 308.69 752.77 310.78 750.83 312.57 749.77 C 317.10 747.15 322.55 746.14 326.47 742.49 C 335.60 734.38 343.59 723.62 344.48 711.07 C 344.63 676.49 344.35 641.91 344.62 607.33 Z" />
<path fill="#daeff8" d=" M 356.91 609.05 C 359.10 608.52 361.28 607.94 363.47 607.39 C 363.02 608.88 362.57 610.37 362.12 611.86 C 360.21 611.26 358.48 610.27 356.91 609.05 Z" />
<path fill="#a7af94" d=" M 362.12 611.86 C 363.21 610.80 364.26 609.70 365.30 608.60 L 365.27 609.48 C 365.26 609.88 365.23 610.68 365.21 611.07 C 362.45 613.55 363.30 617.48 362.90 620.77 C 361.62 620.69 360.35 620.64 359.08 620.58 C 358.53 623.72 357.46 627.07 359.08 630.11 C 358.59 630.79 358.10 631.47 357.60 632.16 C 356.14 627.45 357.31 622.49 358.51 617.88 C 359.26 618.42 360.75 619.51 361.49 620.06 C 362.06 617.42 361.98 614.73 361.62 612.08 L 362.12 611.86 Z" />
<path fill="#e85d4c" d=" M 365.27 609.48 C 366.03 609.40 366.79 609.34 367.56 609.27 C 367.74 614.14 366.88 618.96 365.62 623.65 C 365.09 624.60 364.56 625.56 364.05 626.54 C 362.75 626.49 361.47 626.45 360.18 626.42 C 359.94 625.05 359.69 623.69 359.44 622.34 C 360.86 622.48 362.28 622.63 363.71 622.78 C 364.73 618.96 365.28 615.03 365.21 611.07 C 365.23 610.68 365.26 609.88 365.27 609.48 Z" />
<path fill="#be99a6" d=" M 365.62 623.65 C 366.88 618.96 367.74 614.14 367.56 609.27 L 369.10 609.13 C 368.51 614.05 369.08 619.59 365.62 623.65 Z" />
<path fill="#1d9ed3" d=" M 359.80 612.79 C 360.26 612.62 361.17 612.26 361.62 612.08 C 361.98 614.73 362.06 617.42 361.49 620.06 C 360.75 619.51 359.26 618.42 358.51 617.88 C 357.31 622.49 356.14 627.45 357.60 632.16 C 356.97 633.39 355.90 631.92 355.76 631.17 C 356.33 626.62 356.55 622.05 356.34 617.48 C 357.34 617.05 358.34 616.62 359.34 616.20 C 359.49 615.06 359.65 613.92 359.80 612.79 Z" />
<path fill="#e4ae6f" d=" M 362.90 620.77 C 363.30 617.48 362.45 613.55 365.21 611.07 C 365.28 615.03 364.73 618.96 363.71 622.78 C 362.28 622.63 360.86 622.48 359.44 622.34 C 359.69 623.69 359.94 625.05 360.18 626.42 C 360.18 627.74 359.81 628.97 359.08 630.11 C 357.46 627.07 358.53 623.72 359.08 620.58 C 360.35 620.64 361.62 620.69 362.90 620.77 Z" />
<path fill="#81657b" d=" M 322.50 653.15 C 321.37 643.47 320.47 633.60 321.79 623.90 C 324.34 627.78 324.23 632.54 325.10 636.94 C 327.68 651.54 330.90 666.22 337.26 679.70 C 337.24 680.14 337.18 681.01 337.16 681.45 C 333.32 676.14 331.58 669.74 329.63 663.58 C 326.57 652.90 324.14 642.01 322.84 630.98 C 321.82 642.43 324.61 653.74 325.49 665.07 C 324.20 672.75 322.84 680.66 319.43 687.74 C 319.58 685.84 319.71 683.95 320.08 682.09 C 321.62 677.14 322.87 672.09 323.75 666.98 C 324.62 662.32 322.93 657.75 322.50 653.15 Z" />
<path fill="#71c1e3" d=" M 296.44 706.41 C 299.87 717.62 296.42 729.46 297.81 740.87 C 297.72 741.00 297.54 741.26 297.45 741.39 C 296.93 741.48 295.91 741.65 295.39 741.74 C 295.42 736.14 296.53 730.61 296.54 725.01 C 296.71 718.81 296.08 712.61 296.44 706.41 Z" />
</svg>
